<?xml version="1.0" encoding="UTF-8" standalone="no"?>
<svg
   xmlns:dc="http://purl.org/dc/elements/1.1/"
   xmlns:cc="http://creativecommons.org/ns#"
   xmlns:rdf="http://www.w3.org/1999/02/22-rdf-syntax-ns#"
   xmlns:svg="http://www.w3.org/2000/svg"
   xmlns="http://www.w3.org/2000/svg"
   xmlns:sodipodi="http://sodipodi.sourceforge.net/DTD/sodipodi-0.dtd"
   xmlns:inkscape="http://www.inkscape.org/namespaces/inkscape"
   version="1.1"
   id="Layer_1"
   x="0px"
   y="0px"
   viewBox="0 0 1919 1920"
   enable-background="new 0 0 1919 1920"
   xml:space="preserve"
   inkscape:version="0.91 r13725"
   sodipodi:docname="Boy-And-Girl-Students-remix.svg"><metadata
     id="metadata15614"><rdf:RDF><cc:Work
         rdf:about=""><dc:format>image/svg+xml</dc:format><dc:type
           rdf:resource="http://purl.org/dc/dcmitype/StillImage" /><dc:title></dc:title><dc:description>colour remix by j4p4n</dc:description><cc:license
           rdf:resource="http://creativecommons.org/publicdomain/zero/1.0/" /></cc:Work><cc:License
         rdf:about="http://creativecommons.org/publicdomain/zero/1.0/"><cc:permits
           rdf:resource="http://creativecommons.org/ns#Reproduction" /><cc:permits
           rdf:resource="http://creativecommons.org/ns#Distribution" /><cc:permits
           rdf:resource="http://creativecommons.org/ns#DerivativeWorks" /></cc:License></rdf:RDF></metadata><defs
     id="defs15612" /><sodipodi:namedview
     pagecolor="#ffffff"
     bordercolor="#666666"
     borderopacity="1"
     objecttolerance="10"
     gridtolerance="10"
     guidetolerance="10"
     inkscape:pageopacity="0"
     inkscape:pageshadow="2"
     inkscape:window-width="1916"
     inkscape:window-height="1035"
     id="namedview15610"
     showgrid="false"
     inkscape:zoom="0.39585237"
     inkscape:cx="769.29504"
     inkscape:cy="895.76456"
     inkscape:window-x="4"
     inkscape:window-y="1"
     inkscape:window-maximized="1"
     inkscape:current-layer="g15548" /><g
     id="g15548"><g
       id="g16162"><path
         style="fill:#925a4c;fill-opacity:1;stroke:#925a4c;stroke-opacity:1;stroke-width:3;stroke-miterlimit:4;stroke-dasharray:none"
         id="path15550"
         d="M970.24,42.07c35.0569-11.6227,80.4637-1.0129,108.2432,22.615   c29.3542,24.9673,29.1943,66.7732,22.9667,101.4514c-1.415,7.8797-10.9414,11.3288-7.5673,20.7361   c2.2991,6.4101,10.5222,12.2938,16.8074,6.8275c6.3326-5.0788,9.8339-12.4942,17.3401-16.2012   c10.0109-4.9441,18.6199-13.834,27.912-20.1164c34.3131-23.1991,73.4446-39.0194,113.572-48.8912   c41.3475-10.1719,80.8376-8.3268,121.4812,3.5238c4.1802,1.2188,8.3859,2.6111,11.9447,5.215   c-1.7185,3.6556-4.1816,7.4086-3.5199,11.69c1.4255,9.0614,9.4993,9.8797,17.0873,12.8535   c17.8422,6.9926,33.9569,17.7272,50.1959,27.7056c5.8806,3.6135,15.9866,12.0653,10.6567,20.0009   c-3.9364,6.4026-13.1239,9.0122-19.6606,11.6514c-17.7527,7.1677-35.0139,7.6604-48.9237,22.6462   c-12.9556,13.9576-26.9026,19.0759-43.4869,27.6472c-18.9558,9.7968-25.1692,28.1093-29.7876,47.7176   c-2.3844,10.1234-7.3031,20.0989-18.4703,10.6818c-9.1597-7.7241-15.5522-18.1555-25.1178-25.5986   c-19.6302-15.2747-45.5016-19.3804-63.7087,0.4733c-18.4984,20.1713-23.5057,47.0232-15.1488,72.7579   c4.0592,12.5001,10.4554,23.5384,17.1371,34.7757c5.6329,9.4736,17.1693,21.5288,18.8275,32.7075   c-14.3757,1.5869-31.0259-3.9077-44.783,1.0893c-12.7324,4.6247-23.4725,13.3387-37.217,15.4207   c-4.9655-0.094-8.511-3.7009-11.0765-7.5558c-3.916-5.8841-7.1107-7.748-13.9563-9.4877   c-10.4503-2.6559-21.3784-22.5534-29.165-30.4347c-19.3109-19.5451-42.0973-38.8835-45.1366-68.0177   c-3.4424-32.9987,16.0157-61.0195,23.0609-91.9561c6.3198-27.7509,2.4565-61.0328-20.3486-80.468   c-10.38-8.8462-24.3705-16.7117-38.3079-16.74c-15.5103,1.9553-29.2294,9.39-41.7101,18.4708   c-23.1276,16.8273-37.9099,38.7152-48.9604,64.7953c-11.5259,27.2021-19.9861,62.1682-43.6494,81.8139   c-2.546-3.9152,0.0647-12.444,0.3777-16.7764c0.4758-6.5857,1.1763-13.1779,0.9411-19.7913   c-0.5032-14.1509-1.6922-28.2474-3.7961-42.2555c-4.1565-27.6749-12.1388-55.2079-10.9665-83.3735   C886.3441,91.1932,925.0228,53.7745,970.24,42.07C979.53,38.99,953.01,46.53,970.24,42.07z"
         fill="#FFFBFA" /><path
         style="fill:#9c6152;fill-opacity:1;stroke:#9c6152;stroke-opacity:1"
         id="path15552"
         d="M463.82,167.69c11.0723-5.6563,20.6906-14.6081,33.18-17.16c5.5081-1.3125,6.8933,2.6071,6.5756,7.3011   c-0.5007,7.3973,0.3736,12.9744,7.0317,17.219c9.8941,6.3075,29.1845-1.6795,39.9839-3.6132   c9.6456-1.7271,29.3328-7.5866,38.5688-2.6069c-4.5834,5.5499-12.9019,7.0626-16.11,13.91   c-2.1485,6.9767,1.006,15.8173,8.0513,18.6927c14.0136,5.7193,48.7125-4.1253,56.7087,11.8673   c0.9213,3.2092-8.4608,16.7351-11.3162,17.8913c-7.946,3.2173-14.2748,7.3072-21.3561,12.0969   c-6.8096,4.6059-14.0856,5.5092-21.3481,8.7756c-10.0977,4.5415-5.157,14.7971-9.2696,22.5562   c-4.0055,9.4027-0.3161,13.0112-0.07,22.32c-3.4094,10.1278-7.6346,10.8747-15.3601,16.7397   c-15.6503,11.8815-20.0604,33.0918-22.8042,51.3792c-0.3561,2.373-2.2492,25.5783-6.0557,23.0711   c-8.7368-4.5184-17.8832-8.3808-27.49-10.61c-19.7976-3.8991-43.1066-2.5419-58.9647,11.2441   c-13.9446,12.1225-18.9663,30.9093-16.9738,48.8433c1.0284,9.256,3.8588,17.6775,6.8057,26.4223   c1.8716,5.5538-0.5019,5.1088-4.6334,8.0591c-3.2534,2.3233-6.8883,8.7008-10.9138,9.3613   c-8.2541-3.6864-15.046-10.8421-24.65-5.02c-8.5375,4.6295-9.1528,12.6092-6.4156,21.1304   c3.7007,11.5208-7.7641,2.5961-12.2433-0.2823c-8.5653-5.5042-16.6777-12.0604-22.4412-20.5581   c-22.8433-29.9472-16.8482-76.5816-44.5948-103.0134c-2.8624-2.7268-6.272-4.8378-8.8552-7.8666   c-0.1212-4.7255,1.2162-9.3039,2.2852-13.8501c2.139-9.0976,4.2407-18.6971,5.3349-27.9799   c4.0639-26.8134-33.876-10.4782-45.05-8.39c-0.7088-18.4297,23.9155-41.6448,36.16-53.02   c9.3216-7.4793,18.4468-14.8569,28.1935-21.7918c9.1626-6.5193,13.9605-13.1892,10.6465-24.7882   c6.679,12.0256,21.2751,17.7385,28.7432,3.5763c7.7728-14.7399,10.9502-36.0555,21.5968-48.7163   c8.9214,18.1582,18.3262,18.4279,32.8575,5.0498c5.7371-5.2818,13.2449-12.9431,21.386-14.0694   C449.6579,160.6646,454.87,171.8859,463.82,167.69C474.88,162.04,459.17,169.87,463.82,167.69z"
         fill="#FFFBFA" /><path
         style="fill:#fce4d2;fill-opacity:1;stroke:#fce4d2;stroke-opacity:1;stroke-width:3;stroke-miterlimit:4;stroke-dasharray:none"
         id="path15554"
         d="M1444.38,237.5c11.7501-3.6667,33.1952-12.6937,38.499,2.9469   c5.5645,16.4096,7.1344,34.5893,9.9901,51.6036c2.6144,15.5767,6.9005,30.8713,15.7208,44.1458   c3.8197,5.7485,8.8695,10.2513,13.7797,15.0315c6.184,6.0204-5.4717,13.002-9.9287,17.6125   c-11.8033,12.21-19.2395,23.9085-25.2626,39.8246c-3.0399,8.033-5.559,16.2499-7.9698,24.4895   c-2.4415,8.3441-1.9963,20.5175-13.1383,17.5523c-17.744-4.7222-30.4122-17.7984-44.6531-28.4929   c-4.4285-3.3256-10.3925-8.1831-16.312-7.7038c-7.3328,0.5938-11.0586,6.7609-8.0715,13.3309   c5.631,12.3853,18.1277,24.0695,28.4377,32.5432c6.1226,5.032,12.6929,9.5436,19.7286,13.2058   c8.2346,3.651,19.8757,4.2446,12.1733,14.6448c-8.4497,11.4094-19.7078,21.4319-33.8293,24.8657   c-17.1232,4.1636-33.9957-4.0156-49.2111-11.0431c-5.6984-2.6319-8.5616-7.6009-15.3541-7.6161   c-7.1205-0.016-13.1885-2.6963-19.8918-4.7914c-6.8522-2.1415-17.0499-7.0004-24.1569-3.9382   c-7.5641,3.2592-10.9779,11.6235-10.264,19.4192c0.6284,6.8619,4.3989,11.9507,10.8258,14.3973   c4.1775,1.5903,8.6464,2.4497,12.5382,4.7518c-1.3229,4.4193-3.371,8.5621-5.2085,12.7764   c-7.1887,16.4864-8.8809,34.3438-11.7516,51.8536c-13.3281-2.0926-26.484-14.0956-37.2532-21.7136   c-12.4775-8.8265-26.7466-16.8771-38.2781-26.8076c-4.6029-3.9639-9.8784-6.6589-15.2512-9.4225   c-9.7556-5.018-6.0422-6.7021-6.9547-15.9659c-0.6133-6.2265-5.0881-10.8185-10.5465-13.3241   c-6.2136-2.8523-12.1248-2.3313-7.6825-10.2737c5.9584-10.6531,7.7673-22.29,20.8888-24.4424   c16.3707-2.6853,33.0066-3.4579,49.1486-7.5016c11.2434-2.8166,27.0961-5.9669,28.4689-19.8298   c1.5747-15.9015-12.7834-27.758-21.2494-39.4688c-7.736-10.7011-16.2864-23.7515-21.8505-35.6945   c-6.8124-14.6224-0.7131-27.1031,12.7367-34.8531c4.8568-2.7986,10.3315-5.274,15.7544-6.7462   c5.8176-1.5793,11.5878,6.1858,15.3306,9.6366c10.9944,10.1366,23.7673,23.8026,40.026,23.7634   c30.9193-0.0746,32.3392-48.0139,49.2876-65.9635c9.5724-10.1378,21.7151-15.0912,32.5065-23.3796   C1426.3777,259.0691,1431.5826,241.5655,1444.38,237.5 M1454.4399,308.64c-8.8503,2.4345-24.675,10.2161-20.36,22.17   c1.5737,3.8289,6.2953,5.5724,6.8501,9.95c0.9929,5.1571,2.8333,13.0417,8.3694,15.2223   C1475.7064,366.384,1477.2772,302.9201,1454.4399,308.64C1447.86,310.45,1459.83,307.29,1454.4399,308.64z"
         fill="#FFFBFA" /><path
         style="fill:#fce4d2;fill-opacity:1;stroke:#fce4d2;stroke-opacity:1;stroke-width:3;stroke-miterlimit:4;stroke-dasharray:none"
         id="path15556"
         d="M645.01,265.33c10.0558,1.42,14.8974-5.7489,15.5078,7.8856c0.5196,11.606,1.9824,23.0429,3.0515,34.5926   c2.1757,23.5044,7.8205,47.7259,17.4397,69.3165c9.3185,20.9159,23.0325,38.7822,38.956,55.1017   c5.2143,5.344,15.7052,13.1479,15.9357,21.4091c0.2607,9.3431-15.4131,11.0956-21.8822,13.1135   c-23.1078,7.2079-23.4387,24.5695-26.4082,45.4955c-0.8059,5.6793-0.5764,8.5323-7.0096,8.9932   c-6.3414,0.4543-13.3192-0.7447-19.4663-2.2458c-10.1448-2.4774-20.4641-5.6702-28.4545-12.6818   c-4.6373-4.1255-18.2196-14.5586-22.3721-4.8753c-3.6585,8.5314,5.7366,17.7885,11.3521,22.9053   c15.4796,14.9012,33.5999,20.3428,54.08,24.48c-0.7145,15.2165-25.5945,20.9817-36.43,24.41   c-17.5211,4.4003-37.0794,2.8525-51.8569,14.8245c-6.9269,5.6119-11.7769,12.8883-15.2019,21.0591   c-2.6434,6.306-2.9093,20.1227-11.188,17.6974c-17.0049-4.9816-34.5422-8.3491-51.4581-13.5156   c-16.8526-5.1472-32.6548-13.629-47.3616-23.1944c-7.0582-4.5907-14.6656-8.1743-21.7733-12.6619   c-6.4329-4.0615,5.572-16.262,8.1474-22.6228c3.3169-8.1922,3.9341-17.2378,1.4956-25.7501   c-1.6487-5.755-9.6277-13.574-5.5547-19.5928c8.5099-12.5753,32.3596-10.4358,30.2216-30.5334   c0.1833-6.5477-6.6357-12.2008-9.3863-17.6748c-4.0801-8.1197-5.2487-17.6445-2.9341-26.4777   c2.2254-8.493,7.3301-16.0886,12.9974-22.6778c7.1991-8.3701,15.9101-6.5313,25.7023-3.0529   c8.2877,2.9439,16.3344,7.7432,22.9922,13.491c5.8404,5.0422,9.7691,11.96,17.4485,14.5423   c20.2504,5.1833,20.0598-16.7986,21.08-30.16c2.0003-18.7126,3.0889-37.847,9.66-55.67c4.9748-11.8312,9.759-7.4612,19.46-10.42   c6.2764-1.1758,15.1317-7.9073,19.75-12.28c5.6016-5.1522,7.2037-12.9236,3.965-19.75   c-3.8223-8.0562-0.3384-12.7591-1.6094-21.1541c-1.0098-6.6694,9.4004-6.4258,13.1857-13.0972   C630.0405,269.3609,638.8625,264.2517,645.01,265.33 M633.52,378.79c-5.3757,0.7534-14.9501,12.6885-14.9356,17.8556   c0.0179,6.3667,14.3479,17.7438,20.2719,18.8092C664.5073,420.0682,653.3143,374.5445,633.52,378.79   C627.17,379.68,637.25,377.99,633.52,378.79z"
         fill="#FFFBFA" /><path
         sodipodi:nodetypes="csssscssccsccc"
         inkscape:connector-curvature="0"
         style="fill:#808080;stroke:#808080;stroke-opacity:1"
         id="path15558"
         d="m 1003.21,520.35 c 24.8257,-3.9714 49.8068,-7.5848 74.9865,-8.0377 12.5101,-0.225 25.2715,-0.2266 37.7349,0.9575 15.0994,1.4346 -2.4252,15.2435 -6.1384,19.8784 -2.1047,2.6271 -3.1155,6.6376 -3.0203,9.965 0.1077,3.7654 4.9493,10.746 3.5558,14.0317 -3.725,8.7835 -16.2374,17.1826 -22.0654,25.1415 -6.5261,8.9124 -12.1874,18.4379 -17.1771,28.2867 -2.8633,5.6517 -8.5988,27.8607 -14.6759,29.6769 -0.6118,-23.7107 -3.8232,-47.0951 -14.0686,-68.7379 -4.7706,-10.0779 -11.0818,-19.2902 -18.1915,-27.8547 -6.7803,-8.1677 -16.418,-13.519 -22.9499,-21.6373 0.6699,-0.5568 1.3399,-1.1134 2.0099,-1.6701 28.38,-4.54 -1.17,0 0,0 z" /><path
         sodipodi:nodetypes="cscssscssccsscssssssccsssssssscc"
         inkscape:connector-curvature="0"
         style="fill:#808080;stroke:#808080;stroke-opacity:1"
         id="path15560"
         d="m 913.73,542.78 c 35.4634,-12.5204 80.7682,3.697 99.7361,36.7299 9.1772,15.9823 10.2409,33.5066 10.1938,51.4901 0.1111,22.8721 -1.3797,44.9171 -5.4255,67.4548 -7.5269,41.9299 -19.537,83.3245 -24.5579,125.6565 -4.9708,41.9098 -10.8386,83.692 -14.4771,125.7557 -0.9242,10.6844 -1.6437,21.3906 -1.9195,32.113 -0.7024,5.1507 -0.5653,10.3556 -0.6415,15.5369 -0.0991,6.7362 1.8463,10.3137 -5.8445,10.7042 -21.9528,1.1145 -43.8083,0.9147 -65.744,3.029 -20.6516,0.2697 -41.2473,2.5672 -61.8859,3.3947 -9.5001,0.381 -19.0494,1.0609 -28.5591,1.0353 -6.3766,-0.017 -8.4863,0.7813 -8.4425,-6.3574 0.0436,-7.1116 1.1629,-14.1515 1.5475,-21.2426 2.3334,-43.4316 5.8981,-86.9301 10.3393,-130.1848 4.5204,-44.0269 16.2798,-86.8585 28.747,-129.2016 5.0881,-17.2811 10.014,-34.5661 14.6785,-51.9649 2.199,-8.2025 3.6084,-17.6044 -4.0233,-23.5824 -7.4665,-5.8486 -4.1237,-8.9822 -1.1255,-17.678 6.6943,-19.4157 11.1894,-39.4365 18.9714,-58.5086 6.7043,-16.4311 22.6514,-27.333 38.4327,-34.1798 m 80.71,118.85 c -29.7362,6.3041 -60.2988,4.9479 -90.4902,4.8102 -10.6248,-0.0485 -27.247,-2.1678 -29.4876,12.299 -1.961,12.6615 -1.3105,25.1446 -3.4797,37.957 -4.7128,27.8358 -9.9865,55.7333 -12.7776,83.8547 -2.5056,25.2438 -3.1092,56.0087 15.9765,75.4559 18.0713,18.4136 48.9521,18.283 69.1873,3.8506 21.2808,-15.1782 32.8674,-41.5995 41.3007,-65.4608 9.9034,-28.0212 15.9397,-57.3914 21.2498,-86.5754 2.4369,-13.3934 21.6766,-76.4837 -11.4792,-66.1912 -35,7.42 4.22,-1.31 0,0 z" /><path
         sodipodi:nodetypes="csscccsccc"
         inkscape:connector-curvature="0"
         style="fill:#808080;stroke:#808080;stroke-opacity:1"
         id="path15562"
         d="m 1166.1899,549.17 c 8.2795,-4.4648 11.5647,-5.4594 21.088,-2.7584 10.1891,2.8898 19.8373,7.453 28.9233,12.8521 7.8873,4.6868 13.5745,11.524 21.1088,16.4364 8.6997,5.7798 17.3969,11.7472 24.6699,19.31 -17.7236,-4.4309 -33.3918,-15.6839 -50.4092,-21.9149 -9.1847,-3.3629 -18.519,-6.5894 -28.0663,-8.7717 -8.9041,-2.0353 -23.7665,-0.1852 -31.4545,-4.9135 4.1394,-4.1593 9.3689,-6.9162 14.14,-10.24 3.8201,-2.06 -4.7799,3.33 0,0 z" /><path
         style="fill:#d40000;stroke:#d40000;stroke-opacity:1;stroke-width:3;stroke-miterlimit:4;stroke-dasharray:none"
         id="path15564"
         d="M281.52,576.26c16.696-0.9755,33.3331,1.9684,49.6097,5.3527   c12.9368,2.6898,32.7916,4.0543,44.0503,11.2373c-6.5943,11.054-23.0016,18.759-32.1171,28.1153   c-4.1284,4.2374-21.7517,31.676-26.6929,30.8647c-4.0558-14.0496-5.8882-27.9407-12.05-41.45   C298.4556,597.5227,287.9536,588.3903,281.52,576.26C294.87,575.48,283.79,580.54,281.52,576.26z"
         fill="#FFFBFA" /><path
         style="fill:#d40000;stroke:#d40000;stroke-opacity:1;stroke-width:3;stroke-miterlimit:4;stroke-dasharray:none"
         id="path15566"
         d="M197.67,582.89c39.7997-9.1119,72.4242,25.3416,84.85,59.78c7.153,19.0845,8.0372,38.7295,5.5671,58.7307   c-1.0734,8.6918,3.434,14.3929,1.093,23.1518c-3.0933,11.5734-6.5677,22.9464-9.2256,34.6398   c-9.4904,41.7537-14.8445,84.8465-17.0093,127.5908c-0.5002,9.8771,0.101,19.9911-0.8226,29.8207   c-0.6615,7.0403-8.475,12.797-10.1901,20.5875c-4.7137,21.4114-9.11,42.636-12.0958,64.3881   c-2.916,21.2438-4.6086,42.6354-5.799,64.0389c-0.3078,5.5347,2.8799,23.4639-5.2558,23.7063   c-10.9175,0.3253-21.8482,0.5922-32.7696,0.884c-39.8591,1.0654-84.8107-0.5402-123.6801-10.0967   c-16.8047-4.1316-32.8812-13.3767-36.8821-31.5319c-5.0996-20.9482,1.2082-45.0718,6.0941-65.49   c10.3274-43.158,21.1051-86.1583,30.921-129.4426c12.026-53.0297,23.4177-107.2183,40.611-158.8495   C127.0655,652.7877,151.8675,597.3992,197.67,582.89 M235.5,705.96c-16.6332,1.4499-33.4047,4.4907-49.7971,7.5958   c-13.0604,2.474-31.9928,2.5205-43.5529,9.5842c-5.5749,2.1808-10.8815-0.277-14.707,5.8374   c-3.5236,5.6317-5.1668,13.4854-7.1266,19.7888c-5.2595,16.9166-11.3543,33.5739-16.4265,50.5546   c-10.1625,34.0223-17.9147,68.2606-19.3668,103.8463c-0.695,17.0323,1.1614,34.1257,5.0106,50.7169   c5.0217,21.6445,14.6847,19.6782,34.4662,19.946c30.4843-0.1122,69.2134,3.9009,95.9742-13.8004   c26.9046-17.7964,28.4306-59.7511,33.8759-88.2857c6.7238-35.2343,11.9394-70.7135,18.0027-106.0587   c2.4159-14.083,10.4243-34.5266,7.3972-48.6453C274.2495,697.8929,249.9303,705.2048,235.5,705.96   C227.47,706.66,246.01,705.41,235.5,705.96z"
         fill="#FFFBFA" /><path
         style="fill:#d45500;stroke:#d45500;stroke-opacity:1;stroke-width:3;stroke-miterlimit:4;stroke-dasharray:none"
         id="path15568"
         d="M1123.02,586.06c6.8071-9.2322,42.6775,0.4473,52.0812,2.5941   c15.6282,3.5678,32.9735,9.1349,46.6118,17.7613c29.9747,18.9595,59.7183,36.7776,86.9633,59.8947   c7.8915,6.6958,33.5029,21.6143,32.9164,32.2996c-1.0343,18.8389,1.5085,37.8328-0.2386,56.6407   c-0.5836,6.2836-0.1418,13.047-7.554,13.2123c-9.032,0.2014-13.0546,6.5429-19.2001,12.1574   c-7.9327,7.0622-15.5558,14.4628-23.4829,21.5311c-5.774,5.1484-13.3588,14.6449-20.937,16.9789   c1.5259-18.5115,9.4473-36.8381,12.2058-55.3563c3.0856-20.7136,4.3788-44.4982-6.0983-63.4982   c-3.8947-7.0627-10.72-15.2678-18.4076-18.3655c-6.1406-0.9952-13.8043,0.3122-12.66,8.5925   c0.9664,6.9929,8.9866,13.4568,11.5331,20.3687c3.5544,9.6478,3.6321,20.1325,2.9181,30.2873   c-1.3842,19.6838-8.2917,39.0596-14.2393,57.7144c-3.0597,9.597-6.0905,19.3104-8.4529,29.1057   c-2.5691,10.6517-0.2798,20.8071-9.0758,28.1705c-7.8892,6.6044-15.7489,13.2442-23.5558,19.9459   c-5.3256,4.5717-13.868,9.1122-16.0175,16.2649c-2.1262,6.8079,1.0227,14.2469,6.2957,18.6926   c8.1295,6.854,16.4473,3.1768,23.5519-3.1606c31.6271-28.2115,65.2922-54.6162,97.5725-82.132   c4.7887-3.913,14.7327-18.5583,19.9508-12.6719c5.4592,6.1584,10.1321,13.6064,14.3209,20.6614   c10.557,17.7804,15.752,36.3027,14.4182,56.9905c-5.3959,40.8319-40.7688,71.5594-72.4183,93.8345   c-33.6694,23.6968-68.3712,47.7306-107.8757,60.656c-20.9031,6.8394-44.1843,10.8932-64.9758,1.5696   c-19.0936-9.687-27.5143-29.2117-32.2662-48.9316c-11.3804-47.2274-12.7534-95.7802-15.4049-144.0215   c-2.6163-47.6016-8.1685-95.9727-1.4623-143.4297C1076.4559,664.9898,1093.6865,621.5262,1123.02,586.06   C1124.62,583.89,1120.15,589.53,1123.02,586.06z"
         fill="#FFFBFA" /><path
         style="fill:#6d79c1;fill-opacity:1;stroke:#6d79c1;stroke-opacity:1;stroke-width:3;stroke-miterlimit:4;stroke-dasharray:none"
         id="path15570"
         d="M402.92,608.91c19.1543-17.9522,60.3468,31.1031,72.4244,43.3967   c11.3845,11.588,23.3649,22.0293,33.1211,35.131c10.0887,13.5483,18.5053,28.2276,27.0229,42.7848   c8.1008,13.8448,15.9563,27.7447,25.8516,40.4275c4.4146,6.6342,6.5948,7.5115,0.314,13.8004   c-6.4388,6.447-11.5341,14.4738-16.2358,22.225c-8.2654,13.6262-15.2016,28.0411-24.1036,41.2836   c-2.4706,3.6752-6.6486,11.7983-11.4698,13.1624c-6.2065,1.7561-21.3316-4.1035-27.8348-5.5314   c1.4605-8.5877,8.1469-17.0949,11.2971-25.2878c3.4069-8.86,5.9343-18.2033,7.7739-27.5121   c2.4194-12.2422,8.4644-46.3762-5.8211-53.9302c-20.5855-8.0152-19.4353,28.599-20.7936,39.3511   c-2.7156,21.4969-7.9498,41.1767-19.3859,59.7407c-9.817,15.9357-33.8585,14.9901-50.9297,18.7197   c-8.1739,1.7858-20.2134,0.9854-27.232,5.8073c-8.2228,5.6492-5.4739,16.4852-0.5443,23.1813   c10.0187,13.6089,38.7072,0.4989,51.7163-2.2245c19.6502-4.1138,41.5091-8.3278,61.3087-2.7112   c18.8087,5.3354,27.6417,20.2036,36.7366,36.2032c4.8008,8.4456,8.9576,17.2285,13.6925,25.7123   c4.5332,8.1224,1.6401,17.0615,4.3914,26.2101c-34.4005,24.4957-74.1419,44.0313-113.1345,59.9672   c-32.3519,13.2219-80.7061,34.1174-110.0246,4.4172c-27.4829-27.8406-28.3118-76.1402-28.5554-112.6826   c-0.3939-59.0943,8.9212-119.6348,20.5854-177.4647C325.1357,693.3713,361.3574,651.0519,402.92,608.91   C405.31,606.67,387.85,624.19,402.92,608.91z"
         fill="#FFFBFA" /><path
         id="path15572"
         d="M1328.6801,634.89c15.9644,3.8802,33.5037,17.3199,42.58,30.87   c-8.7714,0.0859-13.1871-6.2896-19.4796-11.7085C1344.6764,647.9337,1334.1395,642.5233,1328.6801,634.89   C1338.76,637.34,1330.84,637.91,1328.6801,634.89z"
         fill="#FFFBFA" /><path
         style="fill:#d40000;stroke:#d40000;stroke-opacity:1;stroke-width:3;stroke-miterlimit:4;stroke-dasharray:none"
         id="path15574"
         d="M497.92,637.62c5.0709-4.7452,32.3354,7.2836,38.7979,8.8633c7.69,1.8797,12.8165,4.2772,17.8621,10.4705   c4.6101,5.6588,7.4189,14.859,12.8348,19.2818c12.477,10.1891,20.3195,28.7875,28.3497,42.5892   c8.2161,14.1212,21.2873,31.0253,25.2855,46.9952c-7.3965,0.0856-14.5037-1.5001-21.9326-0.6055   c-9.0883,1.0944-8.994-1.4083-11.8073-9.3378c-5.4438-15.3433-13.78-29.9315-22.8-43.4166   C546.0445,684.4817,523.0568,659.7072,497.92,637.62C500.1,635.58,523.06,659.71,497.92,637.62z"
         fill="#FFFBFA" /><path
         style="fill:#fce4d2;fill-opacity:1;stroke:#fce4d2;stroke-opacity:1;stroke-width:3;stroke-miterlimit:4;stroke-dasharray:none"
         id="path15576"
         d="M1434.63,685.85c23.2577,15.775,7.9338,63.5062,1.0879,83.6541   c-9.3563,27.5358-22.1415,60.9209-39.7878,84.2659c-6.5059-9.9299-9.7792-22.3175-15.7697-32.7181   c-6.6163-11.4872-14.2048-22.3912-22.3104-32.8719c-3.8569-5.1909,8.7589-20.2338,9.65-27.44   c2.2629-13.4935-2.7728-30.702,2.1801-43.3c6.8109,2.7357,11.9717,4.5811,18.2048-0.5593   c5.9387-4.8976,14.1604,3.5803,21.1917,5.1877C1427.6067,726.3044,1431.762,698.2458,1434.63,685.85   C1441.53,690.53,1432.83,693.63,1434.63,685.85z"
         fill="#FFFBFA" /><path
         sodipodi:nodetypes="ccssscssccsccc"
         inkscape:connector-curvature="0"
         style="fill:#808080;stroke:#808080;stroke-opacity:1"
         id="path15578"
         d="m 977.51,696.16 c 1.4,0.1533 2.8,0.3067 4.2,0.46 -5.2906,35.711 -10.947,72.1406 -22.9982,106.2773 -4.6632,13.2092 -10.7142,26.2318 -19.9243,36.9237 -8.4107,9.764 -26.8734,25.248 -41.0227,18.7901 -13.6089,-6.2112 -13.4431,-26.115 -14.1049,-38.6111 -0.4565,-20.1361 2.6754,-40.0936 4.9315,-60.0421 2.1628,-19.1233 3.5537,-37.8669 -1.1497,-56.6898 -2.1568,-8.6315 8.4601,-5.66 14.9363,-5.6456 8.7391,0.0193 21.0637,-2.194 29.2918,1.2675 -3.6777,11.6205 -21.968,45.806 3.9826,45.6459 18.8438,-0.1163 26.8354,-33.0107 21.6574,-46.5859 6.6235,-1.5508 13.4584,-1.3605 20.2002,-1.79 1.41,-0.12 -6.75,0.43 0,0 z" /><path
         style="fill:#d40000;stroke:#d40000;stroke-opacity:1;stroke-width:3;stroke-miterlimit:4;stroke-dasharray:none"
         id="path15580"
         d="M225.81,740.46c2.6608-0.3851,17.1458-4.4526,17.6975-0.0063c0.6046,4.8731-1.2041,10.1415-2.118,14.8681   c-2.9741,15.383-5.2875,31.1044-7.5835,46.6084c-4.5577,30.7761-10.5564,61.3848-17.1902,91.781   c-2.5955,11.8927-4.651,26.3473-14.2511,34.9313c-10.1922,9.1136-26.3632,10.7572-39.3448,12.0574   c-13.3193,2.0439-28.3844,1.6689-41.83,0.83c-6.9595,0-5.9645-33.8496-5.962-38.6667c0.0146-28.8441,5.4391-57.444,12.4367-85.33   c3.8336-15.2773,8.1086-30.4401,12.5566-45.5488c1.6962-5.7615,2.9717-11.6799,4.8975-17.3701   c2.3103-6.8265,13.8119-4.7112,20.4138-4.9814c8.7643-0.3588,5.2464,7.8605,4.5849,14.4608   c-0.804,8.0224-1.4872,15.9387-1.6031,24.007c-0.217,15.1096,10.3737,24.79,24.6107,15.8987   c10.9892-6.8629,19.6875-16.8202,24.6203-28.816c2.3754-5.7765,3.8452-11.6393,3.9957-17.9036   C221.8982,750.7474,217.6805,742.2176,225.81,740.46C231.2,739.68,223.96,740.86,225.81,740.46z"
         fill="#FFFBFA" /><path
         sodipodi:nodetypes="ccscccsccscc"
         inkscape:connector-curvature="0"
         style="fill:#808080;stroke:#808080;stroke-opacity:1"
         id="path15582"
         d="m 1031.91,796.77 c 1.0007,-6.1042 1.5402,-12.4505 4.34,-18.08 3.8044,45.2944 4.9478,90.7571 9.4388,136.0536 0.968,9.7625 8.3217,15.97301 9.2066,25.74341 0.6277,2.8066 -7.959,8.20969 -9.585,10.05029 -3.3014,3.737 -1.9175,9.7133 -1.2856,14.1827 1.7881,12.6462 4.9185,18.8326 -6.5481,26.1151 -8.2535,5.2419 -16.5906,14.0323 -25.8467,17.2549 -2.1494,-15.4883 0.662,-31.4858 0.68,-47.02 1.1285,-18.4136 2.4355,-36.821 4.3369,-55.1729 3.7778,-36.462 8.7813,-73.0466 15.2631,-109.1271 1,-6.1 -5.19,28.89 0,0 z" /><path
         style="fill:#fce4d2;fill-opacity:1;stroke:#fce4d2;stroke-opacity:1;stroke-width:3;stroke-miterlimit:4;stroke-dasharray:none"
         id="path15584"
         d="M577.38,805.39c12.3056-12.7673,28.512-17.157,44.6769-8.73c13.0122,6.7834,26.622,17.4506,31.6005,31.767   c12.4744,35.8725-30.9492,70.1029-54.855,89.4116c-6.3857,5.1577-12.9245,10.0872-19.4965,14.9991   c-3.1404,2.3472-6.2769,4.8122-9.9759,6.2424c-2.3341-3.8412-4.4984-7.7829-6.5816-11.7648   c-7.6364-14.5964-14.2438-29.8948-24.2245-43.1162c-3.0676-4.0635-10.2296-9.1064-11.5739-14.139   c2.9631-7.0178,10.71-13.4807,15.2274-19.6362C553.4446,835.0703,563.7475,818.8276,577.38,805.39   C583.51,799.03,559.19,823.32,577.38,805.39z"
         fill="#FFFBFA" /><path
         style="fill:#6d79c1;fill-opacity:1;stroke:#6d79c1;stroke-opacity:1;stroke-width:3;stroke-miterlimit:4;stroke-dasharray:none"
         id="path15586"
         d="M654.36,911.29c12.4083,0.2141,6.3868,55.2336,6.19,63.7013   c-0.6098,26.2309,8.7833,48.7001,15.6144,73.6241c2.9512,10.7673,5.3419,22.2334,3.4495,33.4115   c-1.4105,8.3312-9.9489,3.9852-16.5143,3.1105c-6.2552-0.8334-12.6097-1.2144-18.9114-1.4907   c-25.4147-1.1146-50.3854-0.188-75.7333,2.2545c-53.1889,5.1252-106.6577,9.7327-159.609,16.9376   c-25.5822,3.481-51.4858,7.7493-76.1872,15.4313c-12.7463,3.964-17.784,2.436-22.3534-10.5219   c-3.4567-9.8026-8.4087-25.192-6.3952-35.6881c17.9286,5.7107,31.9955,12.3405,51.4198,12.5687   c18.6168,0.2188,37.0896-3.0242,55.0195-7.8879c36.6588-9.9442,71.5295-26.3444,104.9535-44.125   c16.4492-8.7505,32.6622-18.0637,48.5246-27.8408c10.0242-6.1786,31.278-15.0411,28.2516-30.1285   c-1.2367-6.1653-5.1984-6.9512,1.1954-11.7603c7.405-5.5697,15.0573-10.7936,22.3961-16.4725   C629.2238,935.9261,643.3134,924.4735,654.36,911.29C654.94,911.3,651.62,914.56,654.36,911.29z"
         fill="#FFFBFA" /><path
         style="fill:#d45500;stroke:#d45500;stroke-opacity:1;stroke-width:3;stroke-miterlimit:4;stroke-dasharray:none"
         id="path15588"
         d="M1379.92,948.95c3.5875-4.7268,5.8414-10.3815,10.0399-14.66c3.5509,6.7675,2.6858,18.3189,3.7982,25.8028   c1.7748,11.9395,3.7084,23.8549,5.728,35.7552c4.0499,23.8634,8.897,47.579,12.745,71.4785   c1.905,11.8318,4.2498,23.658,5.5038,35.5789c1.2495,11.8778-12.3035,8.0476-21.3958,8.4777   c-23.1432,1.0948-46.3027,1.9399-69.4448,3.0295c-45.9967,2.1656-92.3992,7.2841-137.9489,13.9574   c-23.7515,3.4799-47.3741,7.3287-70.948,11.7721c-21.7565,4.1008-45.4525,12.629-67.5276,13.448   c0.5334-16.76,6.0734-34.1583,9.6812-50.4805c3.5096-15.8772,3.8339-36.4348,10.6888-51.0795   c42.4894,50.6772,109.4041,38.0626,162.6703,11.4471c28.6173-14.2992,54.6854-32.9001,80.3748-51.8237   C1338.2098,993.7351,1362.7463,974.2012,1379.92,948.95C1383.51,944.22,1374.86,956.39,1379.92,948.95z"
         fill="#FFFBFA" /><path
         style="fill:#88aa00;stroke:#88aa00;stroke-opacity:1"
         id="path15590"
         d="M601.68,1112.2c10.9465-0.9078,21.9232-0.0684,32.8723,0.2971c4.0978,0.1367,8.5284,0.0011,12.551,1.0707   c5.2114,1.3857,3.3609,6.5697,4.0848,10.9175c3.722,22.3535,8.2265,44.6948,14.7548,66.4141   c11.9447,39.7395,32.5159,74.6563,54.967,109.2307c8.769,16.4993,20.2339,31.8265,29.632,48.0228   c10.5369,18.1592,19.3646,37.3083,26.3481,57.1072c12.3643,40.9406,20.8768,82.7262,31.1458,124.2141   c9.7759,39.496,22.1102,79.9685,43.8619,114.7186c2.4773,3.9576,5.0566,7.8517,7.4443,11.8652   c3.2717,5.4995,1.3301,5.3547-3.937,7.3545c-8.6486,3.2836-17.1395,6.8518-25.5973,10.6108   c-20.0383,8.9059-39.4948,19.0198-59.5471,27.8934c-16.9893,7.5183-36.6881,16.6102-55.4611,17.8594   c-9.9052,0.6591-14.2937-0.8354-16.0721-10.9163c-2.1745-12.3262-4.9879-24.535-8.2831-36.6084   c-11.2047-41.0529-24.8851-82.0138-43.9772-120.1194c-18.9175-37.7571-42.1654-74.6584-70.8904-105.7628   c-13.6722-14.8047-27.0551-29.2106-42.4009-42.3655c-3.1296-2.6829-6.4369-5.157-9.8859-7.4138   c1.5685-5.1584,3.2134-10.2935,4.9151-15.4095c3.9728-11.9438,8.2546-23.7821,12.6067-35.5922   c14.3953-39.0632,37.7059-75.5066,44.827-117.0532c1.176-6.8608,4.0379-17.7124-2.331-22.8828   c-4.3388-3.5222-12.1023-3.8141-15.7092,0.9686c-4.7317,6.274-5.0541,18.328-7.3203,25.8102   c-3.3434,11.0393-7.6854,21.8175-12.3293,32.3656c-16.8629,38.302-39.6899,74.0808-53.1027,113.8784   c-12.474,37.0122-33.6823,70.6053-59.0663,100.095c-24.7503,31.6738-55.1527,58.8298-78.2766,91.8647   c-11.0179,15.7404-20.4804,32.3917-28.7666,49.7106c-9.672,20.2151-9.8835,40.9392-16.4967,61.8347   c-8.1402,21.4326-26.7099,15.988-44.7466,11.3545c-19.2478-4.9447-38.046-11.8003-56.3938-19.3889   c-18.0471-7.4644-35.8997-15.7278-52.9472-25.2806c-3.8692-2.1682-7.6457-4.5214-11.1525-7.245   c1.4712-3.2278,4.1055-5.6674,6.6459-8.0381c8.4839-7.9175,16.4539-16.4772,24.523-24.814   c58.3388-60.2737,107.2-130.4905,132.4186-211.0599c12.2137-39.0209,26.6931-81.9064,29.2618-122.85   c1.3121-20.9144,0.9639-41.9498,1.3622-62.8936c0.376-19.7704,0.5101-43.2087,10.0554-61.0706   c9.0073-16.8551,34.4605-15.5723,51.4367-18.3252c22.7025-3.6814,45.4952-5.9567,68.3657-8.2761   C514.6537,1119.8723,557.8991,1114.0244,601.68,1112.2C614.46,1111.14,594.48,1112.5,601.68,1112.2z"
         fill="#FFFBFA" /><path
         style="fill:#d4aa00;stroke:#d4aa00;stroke-opacity:1;stroke-width:3;stroke-miterlimit:4;stroke-dasharray:none"
         id="path15592"
         d="M1341,1146.6c9.2014-0.6462,32.551-6.6832,39.0829,0.7671c9.1426,10.4279,15.9639,24.8519,22.2198,37.1333   c13.3376,26.1838,24.1727,53.564,34.0123,81.2242c19.5111,54.8481,35.7285,111.1788,62.7062,163.0254   c25.4558,48.9219,54.757,96.4141,84.0836,143.1119c14.8181,23.5955,31.2223,46.1691,49.7649,66.9675   c8.6326,9.6827,17.3738,19.3804,27.4297,27.6151c11.3033,9.2565,23.9309,15.8678,35.5706,24.4254   c-14.4628,9.667-34.0874,14.406-50.6122,19.1479c-21.0243,6.0331-42.1279,11.7827-62.9948,18.3689   c-18.5524,5.8556-36.399,12.7389-52.9005,23.1605c-18.0325,11.3887-33.1627,9.476-47.426-6.9525   c-11.4562-13.1949-22.9484-28.6487-29.6877-44.8224c-8.4548-20.2904-9.203-42.7424-10.3134-64.4055   c-2.2234-43.3756,4.1772-88.4968-8.7417-130.7095c-11.9905-39.179-45.0244-66.6405-78.967-87.3098   c-16.9019-10.2924-33.9473-20.5129-51.0696-30.4413c-9.078-5.2639-18.0894-10.4609-26.8496-16.2401   c-11.6993-7.7181-13.5433-8.1271-8.1613-21.4034c15.2902-37.7179,25.8314-78.3809,48.9528-112.3606   c5.2089-7.6549,10.4006-15.5901,17.3662-21.7675c5.5453-4.9178,8.509-11.489,2.801-17.8975   c-11.5903-13.0129-35.3977,17.7422-41.5127,26.0989c-16.9745,23.1971-27.8832,51.4741-39.3,77.6868   c-12.4945,28.687-26.7621,57.2327-43.691,83.5836c-33.8911,52.7535-82.7159,83.1863-136.3225,112.8534   c-55.2371,26.6823-113.9365,50.2275-163.0383,87.7136c-11.3625,8.6746-22.1578,18.1022-32.1692,28.3101   c-0.8881,0.9056-6.5452,8.4623-8.6524,4.0464c-4.1895-7.0601-7.8901-14.4006-11.2697-21.8793   c-6.1592-13.6299-11.4985-27.6333-16.0121-41.886c-4.8831-15.4196-11.7689-32.8884-12.2782-49.1848   c6.6374,8.7742,13.329,14.4575,22.291,4.9591c8.9193-9.4534,19.1241-17.9298,30.0076-25.027   c26.892-17.5363,56.8804-29.1318,85.7689-42.814c26.5442-12.5718,52.1657-29.901,70.5726-53.0981   c16.9801-24.1176,27.3502-52.9291,30.59-82.25c5.4216-30.5339,5.9176-62.1747,7.8167-93.089   c0.4258-6.9316,1.157-13.728,1.8933-20.6298c1.094-10.2533,0.5485-13.0646,10.9998-15.1476   c18.0426-3.5958,36.137-6.9324,54.2762-10.004C1210.5657,1156.7552,1276.6635,1146.8152,1341,1146.6   C1352.96,1145.76,1323.05,1146.66,1341,1146.6z"
         fill="#FFFBFA" /><path
         style="fill:#808080;stroke:#808080;stroke-opacity:1"
         id="path15594"
         d="M132.74,1671.38c13.1605,3.2814,25.8957,12.2104,38.1684,17.9406   c15.4589,7.2177,31.2686,13.8204,47.3333,19.5714c7.9487,2.8455,16.0393,5.2688,24.0147,8.0358   c3.1937,1.0989,6.3583,2.2762,9.4936,3.5322c0.0401,4.281-0.7825,8.6094,0.23,12.8501   c2.6048,14.1724,11.0957,26.4812,21.3852,36.2567c19.1076,18.1531,54.9963,28.3147,64.5127,54.7136   c5.3082,14.7252-3.0476,29.5197-12.9803,40.0933c-7.681,8.1765-21.9682,23.6749-34.0891,23.2926   c-30.3651-0.9578-57.3031-15.8024-83.527-29.6056c-29.8043-15.6879-57.7255-35.433-84.3301-56.0021   c-12.2012-9.4333-24.0884-19.2526-36.1689-28.8325c-4.3452-3.4458-13.7159-8.0664-15.074-13.9364   c-1.5277-6.6028,6.0375-13.9554,9.6404-18.6487c9.5505-12.4408,20.3781-23.8121,30.6237-35.667   C120.5047,1695.1018,131.7204,1684.7472,132.74,1671.38C136.43,1672.3,132.56,1673.74,132.74,1671.38z"
         fill="#FFFBFA" /><path
         style="fill:#808080;stroke:#808080;stroke-opacity:1;stroke-width:3;stroke-miterlimit:4;stroke-dasharray:none"
         id="path15596"
         d="M819.74,1714.74c4.7578-2.179,9.3154-4.8517,14.35-6.38c9.6886,34.2794,61.7476,24.5416,87.1957,22.1105   c17.2715-1.65,34.713-3.6543,52.0638-4.072c17.6462-0.4247,35.5864-2.4529,53.0723,0.6653   c11.8795,2.1184,26.1019,6.3091,30.6182,19.0663c4.8279,17.0575-0.0963,32.4282-15.0179,42.4257   c-27.7013,18.5599-60.5795,17.4985-92.0321,21.5944c-34.7029,1.3314-68.2431,22.8352-100.91,32.7899   c-28.0759,9.1879-72.226,25.8085-96.751,0.33c-9.528-9.8983-10.7457-24.9894-13.0563-37.8071   c-2.9951-16.6154-4.1993-34.6245-12.5906-49.6625c-4.3679-7.8278,3.7431-7.3,10.2843-8.856   c10.2725-2.4435,20.3439-5.67,30.2488-9.3148C785.2384,1730.9973,802.1248,1722.2656,819.74,1714.74   C824.5,1712.5601,810.26,1718.79,819.74,1714.74z"
         fill="#FFFBFA" /><path
         style="fill:#6c5d53;stroke:#6c5d53;stroke-opacity:1;stroke-width:3;stroke-miterlimit:4;stroke-dasharray:none"
         id="path15598"
         d="M1626.45,1747.74c7.7654-1.2384,12.0381,5.5505,17.9063,9.7683   c6.4943,4.668,13.5663,7.8859,21.1068,10.4758c15.3716,5.2798,31.8091,5.9131,47.9135,5.7946   c17.2408-0.1268,34.3903-0.735,51.546-2.5331c18.6202-1.9517,37.8722-6.6993,56.6268-5.7479   c15.5011,0.7863,32.8151,2.7032,47.3698,8.3252c21.5663,8.3303,2.3035,19.5059-9.797,25.0765   c-31.9932,14.7286-66.3687,25.1819-99.4436,37.2117c-32.3878,11.7799-65.0098,23.036-96.974,35.9304   c-23.5061,9.4824-65.0459,33.2524-83.2145,2.4385c-7.8333-13.0155-10.7797-28.2076-12.75-43.0699   c-3.0024-17.0972-1.8521-33.3242-17.5256-44.2239c-6.9091-4.8048-1.8174-6.7257,3.9607-10.0724   c6.7249-3.8951,13.6738-7.3092,20.7638-10.4877C1590.9308,1759.0087,1608.5515,1752.8494,1626.45,1747.74   C1628.77,1747.37,1603.6801,1754.24,1626.45,1747.74z"
         fill="#FFFBFA" /><path
         inkscape:connector-curvature="0"
         id="path16158"
         d="m 257.947,1013.2772 c 0,0 -8.52717,92.3777 -5.68478,92.3777 2.84239,0 37.66168,-7.106 37.66168,-7.106 l 2.84239,-18.4755 5.68478,-35.5299 -20.60733,-18.4755 z"
         style="fill:#d40000;fill-rule:evenodd;stroke:none;stroke-width:1px;stroke-linecap:butt;stroke-linejoin:miter;stroke-opacity:1;fill-opacity:1" /><path
         inkscape:connector-curvature="0"
         id="path16160"
         d="m 1336.6345,623.15902 -27.7134,8.52717 56.8479,47.61006 23.4497,-14.92256 -25.5815,-15.63315 z"
         style="fill:#808080;fill-rule:evenodd;stroke:none;stroke-width:1px;stroke-linecap:butt;stroke-linejoin:miter;stroke-opacity:1;fill-opacity:1" /><path
         sodipodi:nodetypes="cssscscsssscccssssscsscssssccscssscssssccssscsccsscssccccsssssssccccsssssscsccssssssccccssscssccsssscccsssssccsscsssccsscsssssccscccscssscsssscsssssscscscscsscscsccsscsscccscssssssscssscscssssscsssccssscccccscsssssccscsssscsccsscsscsscccsssscsscsssscscssssscsssssssccsssscsssssscssscsssscsssssssssccscscccsccssccccsscscssccsccsssscssccssccsscssscccsssscscsssscssscssccssscccssssssssccscsccsccssscsscsssccscccssscsscssssssccscccccscccscsscsccsscssscscsssssscssccccccsssccscsscsccsssssssssssscssssccssssssssccsscccssccccssccccsssccccsscsssssscsssscscsscsccsscssssccscccccscsscssccsccsccscssccssccccsscccsccscscscccssssssscssssssscsccsccccsssscssscccssssssscssssssscssssssccssssscssccsscscscccccsccscsscccssssssssssscccscsscsssssscccsssssssssscscsccsccssscsscccccsssssssssccc"
         inkscape:connector-curvature="0"
         style="fill:#000000;fill-opacity:1"
         id="path15600"
         d="m 955.66,4.95 c 21.2531,-2.939 41.0702,-4.589 62.5648,-3.497 18.6392,0.9469 37.1281,10.3064 54.2093,16.9561 34.4259,13.402 52.3682,42.8704 64.7207,76.2628 2.4033,6.4967 0.78,22.4065 5.9152,25.8881 7.5221,-3.0699 14.9194,-7.762 21.9285,-11.8668 18.007,-10.5456 37.4531,-16.9947 56.4716,-25.3032 16.5492,-7.7083 36.6018,-11.9614 54.4608,-15.403 18.5576,-3.5762 42.4299,-9.2616 61.2605,-6.057 20.2733,3.4502 39.6765,5.0421 59.2534,12.1724 19.795,7.2098 38.8433,16.567 55.5977,29.384 7.7147,5.9018 16.8152,9.9152 23.4587,17.1114 3.0396,3.2923 6.8655,6.0346 6.9025,10.7771 0.024,3.1456 -0.4413,6.7487 1.7565,9.3952 14.5712,9.3949 29.0326,20.5201 36.1663,36.9512 7.188,16.5566 9.3927,37.5837 -7.6458,48.0916 -7.9753,4.9185 -6.2339,7.8437 -3.7965,16.1279 3.1007,10.5384 5.4391,20.8698 7.6426,31.6221 3.3782,16.4836 9.6348,36.6379 21.8538,48.7762 9.8433,9.7783 35.0953,15.9279 25.9796,35.0409 -15.9653,35.7993 -47.7245,60.5535 -57.6799,99.6292 -2.0692,8.1218 -1.3618,17.4611 -7.1901,24.0071 -5.1116,5.741 -6.7234,13.845 -10.3618,20.5181 -9.0363,16.5738 -20.4703,30.7256 -36.2644,41.2031 -16.4208,10.8933 -35.2094,9.9512 -53.524,5.8903 -9.6453,-2.1386 -17.9502,-5.4936 -27.0422,-9.1092 -12.2361,-4.8659 -13.8752,5.0305 -18.2646,14.3373 -7.8796,16.7069 -11.7765,33.7874 -11.2728,52.194 -0.589,7.6017 14.7996,11.215 19.4966,14.6678 7.0627,5.1917 14.2385,9.7018 21.0369,15.3542 5.8387,4.8544 10.4504,12.7962 18.2166,13.728 4.9819,-6.7745 9.058,-9.1725 17.7703,-7.3124 17.3857,3.7118 34.7219,17.4835 43.1616,33.0215 18.2865,33.6667 7.6371,74.5124 0.6133,109.5932 -7.2958,36.4389 -24.4653,69.8941 -44.1652,100.7878 -3.2272,4.9189 -15.6136,12.567 -9.4705,18.6992 6.7114,6.6995 7.4885,15.8593 9.2452,24.9434 4.2579,22.0179 7.985,44.1885 13.2814,65.947 6.9788,28.6709 13.87,60.5426 15.6738,90.0228 0.8954,14.6328 3.4753,28.7656 3.88,43.5176 1.7433,16.3979 -24.5422,11.9071 -33.13,13.86 0.1312,6.924 6.546,13.5935 9.856,19.3188 3.9164,6.7743 7.4701,13.7662 10.4645,20.9985 6.4844,15.6619 12.7441,31.0702 17.7762,47.3069 9.6357,31.0901 17.6887,62.5891 27.0033,93.7557 12.3411,32.3151 24.8053,63.8005 42.9893,93.3534 8.4065,13.6622 17.7386,26.8767 26.6708,40.2166 8.3832,12.976 16.8016,27.606 26.62,39.4601 10.4058,12.584 17.9175,28.2909 26.4393,42.1727 7.3368,11.9515 15.2693,24.186 21.6377,36.6802 13.9935,27.4537 35.6458,53.012 58.8729,73.1371 13.3489,7.0056 24.6798,15.7957 38.835,21.61 11.0305,4.5308 36.1761,15.4884 18.283,30.0912 -11.3071,9.2279 -25.5173,14.8939 -38.7878,20.5651 -7.3907,3.1583 -14.8516,5.6851 -22.3513,8.4824 -6.0543,2.2583 -16.5574,2.9576 -20.3488,8.9014 12.4973,11.2013 37.7465,10.9866 53.2151,11.0111 21.0658,0.034 41.316,-1.5087 62.1556,-4.2072 37.8809,-4.9049 84.1262,-15.3553 119.5356,5.2911 15.6156,9.1052 24.9429,20.744 16.012,39.2039 -7.8208,16.1652 -25.9714,26.5692 -41.556,33.6765 -38.0911,17.3716 -78.0968,30.0677 -117.6602,43.5613 -40.2092,13.7136 -78.9,34.1191 -120.2308,44.0945 -16.9277,4.0856 -37.222,8.9525 -54.1221,2.9043 -18.7723,-6.7181 -25.4827,-25.4192 -30.2692,-42.6755 -4.9359,-16.5706 -1.6703,-35.9171 -7.01,-52.1801 -2.276,-7.5764 -2.9053,-15.873 -7.4601,-22.59 -5.3932,-9.7264 -14.8611,5.001 -19.97,6.2999 -15.6223,0.1605 -32.8176,-20.7123 -42.907,-31.0688 -13.3014,-13.6536 -27.282,-26.5206 -34.813,-44.4586 -14.0316,-33.4213 -24.8137,-73.0225 -24.7347,-109.225 0.045,-20.8379 -1.6462,-41.3846 -1.7706,-62.0453 -0.1154,-19.1549 -4.8788,-43.2311 -13.6476,-60.3416 -8.413,-16.416 -19.4094,-29.9503 -33.3342,-42.0984 -15.2913,-13.3401 -35.87,-20.4078 -50.9329,-33.9423 -12.8904,-10.7808 -28.1849,-17.8921 -40.5834,-29.5879 -3.818,-3.6017 -11.9091,-15.913 -18.4565,-12.6921 -5.8936,1.7374 -11.2644,18.6803 -14.63,23.715 -10.1335,15.1594 -19.4105,30.1964 -32.4813,43.1113 -14.5623,14.3885 -31.0436,26.0096 -48.6842,36.3545 -33.9108,19.8857 -69.0256,36.9635 -103.3177,56.0723 -31.8735,17.7612 -64.486,33.8273 -95.026,53.9232 -16.7398,11.015 -32.8273,22.3533 -48.8135,34.4203 -6.4923,4.9006 -14.2262,9.7108 -19.001,16.4797 -6.3329,8.9775 9.8205,15.6859 11.4863,23.2178 2.357,10.6566 -6.8213,17.5712 -16.2226,19.886 -10.4025,4.3521 -20.1658,8.1239 -30.3199,13.11 6.6132,12.1798 37.248,8.2285 47.8754,7.7802 17.0228,-0.7183 37.3641,-3.9523 54.0034,-7.9061 9.1652,-2.1779 18.8453,-1.2654 28.2203,-1.2799 9.6906,-0.015 20.6584,-1.4585 30.2045,0.3308 15.3428,2.8759 33.4777,3.6371 46.8063,13.135 36.3508,20.319 24.5022,69.3215 0.1091,93.7866 -27.0419,27.1218 -71.1707,30.3101 -107.2841,34.1859 -42.3613,4.5463 -78.7258,27.6611 -119.725,37.0074 -40.11617,5.3465 -90.16823,7.3529 -111.6963,-25.398 -9.6541,-15.0771 -11.4932,-35.4908 -11.1578,-53.0319 0.2824,-14.7649 -3.5542,-45.2157 -22.9401,-44.6261 -22.1678,0.6742 -20.7418,-18.7526 -24.139,-35.2839 -3.9438,-19.1913 -8.7776,-37.8726 -13.5355,-56.8693 -14.6331,-58.4254 -45.5617,-110.6285 -77.8613,-160.5707 -13.202,-22.2228 -32.4042,-41.9028 -50.3232,-60.359 -2.9849,-3.0745 -8.11,-10.7151 -12.6306,-11.3699 -5.6227,-0.8143 -7.0979,9.3789 -9.6462,13.4489 -7.8604,12.5543 -15.8972,24.8438 -25.2274,36.3625 -34.9753,43.1797 -82.1974,79.712 -109.5277,128.6722 -7.0502,12.6299 -13.2199,25.1049 -17.3641,39.0356 -4.143,13.927 -5.4385,28.6403 -9.6728,42.4679 -3.7401,12.2137 -7.233,26.498 -17.9279,34.6317 -12.7265,8.7744 -25.0884,7.5931 -39.98,7.5499 0.7387,13.4232 17.2066,25.2163 26.7245,32.8129 11.0863,8.8484 23.8425,16.4635 33.9147,26.3583 19.3486,19.0078 36.6119,48.7579 26.8707,77.1089 -3.7628,25.5682 -36.0211,42.9812 -57.6475,49.6489 -30.9725,9.5492 -66.725,-4.412 -94.2348,-18.269 -28.9865,-14.6008 -55.0973,-32.5814 -81.8057,-50.9089 -24.2515,-16.6416 -44.9554,-38.0349 -68.652,-55.111 -10.1687,-7.275 -24.7009,-17.3307 -30.87,-28.54 -1.3231,-13.4049 12.268,-24.9764 19.9468,-34.8835 8.7661,-11.3099 18.141,-22.4259 28.2376,-32.5546 10.0787,-10.1106 22.2427,-24.7888 35.5256,-30.6018 -3.529,-10.7872 -16.85,-9.863 -15.8163,-24.0182 0.8165,-11.1813 22.933,-26.4574 30.7276,-34.2336 22.3332,-22.2804 43.0818,-45.5354 62.0183,-70.7168 37.7953,-50.2592 67.9042,-105.0138 86.4191,-165.4064 9.5612,-31.1869 19.2291,-63.8834 24.3142,-96.1963 5.1609,-32.7944 4.4613,-62.8217 -1.0829,-95.3788 -0.4198,-7.0579 1.4079,-13.2341 1.6563,-20.1124 0.2224,-6.1603 -10.1029,-3.6235 -15.0667,-9.0682 -8.1033,-8.8885 -10.6809,-28.0789 -10.7096,-39.7393 -0.2023,-14.5409 2.1052,-28.0638 3.9963,-42.3676 0.2325,-2.6361 0.9004,-5.157 2.0037,-7.5625 -2.5031,-3.7277 -4.7051,-7.6426 -7.0373,-11.4761 -3.4171,-5.6167 -7.1322,-11.3827 -11.0127,-16.694 -3.2581,6.6156 -3.2695,17.017 -3.9962,24.3031 -0.946,9.4857 -1.2738,19.3304 -1.8858,28.8427 -0.5125,7.9662 2.3414,19.7777 -1.4938,26.9904 -4.82,9.0648 -14.6061,9.2815 -23.4442,9.6539 -18.6508,-0.5869 -37.9746,3.6851 -56.7926,3.7919 -22.9675,0.1302 -47.9023,2.672 -70.5059,-1.4971 -38.2426,-7.0535 -89.5035,-11.0216 -107.8848,-52.6278 -7.562,-17.1165 -6.434,-38.0792 -2.6334,-55.991 4.1621,-19.6153 7.9879,-39.4272 13.6367,-58.676 14.816,-79.5327 37.3624,-157.6862 56.3732,-236.2802 8.9011,-36.7986 22.0034,-72.277 40.7837,-105.2004 17.2056,-30.1628 50.0824,-61.7673 86.7162,-63.2331 10.5083,-0.4204 20.6322,0.3851 30.9806,1.6962 12.0185,1.5228 23.5177,-5.182 35.537,-5.3161 24.1847,-0.2698 47.4028,0.5072 71.254,4.268 9.3841,1.4797 19.4602,3.3296 28.5153,6.2355 6.6912,2.153 13.5708,3.6246 20.3417,5.4908 5.1725,1.4257 10.8324,4.8617 16.3742,4.2215 9.4743,-1.0946 19.9152,-17.8582 23.4717,-25.7084 2.323,-5.1274 2.7831,-8.9753 -0.3577,-13.8339 -5.8131,1.7499 -6.4588,2.8615 -9.4225,7.9709 -5.8321,10.0547 -16.4899,9.6256 -25.7375,4.319 -11.5566,-5.6319 -23.563,-9.847 -34.9948,-15.7742 -24.0626,-12.476 -33.8668,-29.3261 -40.0337,-55.0181 -5.765,-24.0176 -12.2109,-52.6633 -25.4115,-73.7477 -5.1815,-6.9635 -17.3405,-0.5308 -21.5442,-11.4516 -3.7894,-9.8444 -0.4703,-28.093 0.1542,-38.5584 -12.183,0.2519 -40.5308,21.5481 -41.1656,-4.1119 -0.5015,-20.2719 4.8598,-40.3017 15.1656,-57.8781 9.5737,-16.5716 21.3279,-29.707 35.28,-42.75 14.7204,-14.1121 27.8383,-19.7971 26.8796,-42.8136 -0.8065,-19.3642 -5.9641,-43.0149 -1.4274,-62.1272 1.517,-6.3908 8.5697,-14.3206 15.7078,-10.2692 8.5058,5.6426 12.5839,15.8193 17.2305,24.4827 3.8394,7.1585 6.9114,14.6017 10.9378,21.6637 5.4242,9.5135 8.0682,-4.2561 10.2517,-8.4164 7.428,-13.8789 10.2436,-41.1382 24.53,-49.71 9.1571,-1.0997 14.0887,1.3341 17.37,9.82 2.2458,5.3971 7.5629,23.6611 13.1671,22.1414 7.7466,-2.1006 14.2762,-7.2246 22.2021,-9.3711 9.2268,-2.4987 18.7413,-3.9699 27.8741,-6.7653 9.3437,-2.86 18.3661,-6.4777 27.9714,-8.5104 7.4402,-1.5745 15.7189,-5.9347 22.8094,-1.2739 6.1125,4.018 8.5866,11.4555 11.2421,17.8955 4.6354,11.2414 16.5042,4.2012 26.4411,3.631 20.0115,-1.1482 39.2086,-3.005 59.2524,-0.3393 17.3107,2.3022 34.7505,11.713 16.8101,28.4521 -6.0888,5.6812 -8.3158,8.9273 0.9302,10.2973 8.6567,1.2828 17.54,4.1066 25.7911,6.9044 17.1005,5.7986 32.2714,13.8496 46.0483,25.6622 5.6276,4.8252 4.8765,10.0852 1.0562,15.5642 -4.4223,6.3424 4.6896,9.8295 6.1143,15.6718 1.6496,7.3903 -2.2603,15.3457 -10.8474,15.1312 -3.6324,-0.0907 -6.8296,-2.4528 -10.3264,-3.1812 -6.9918,-1.4565 -4.1768,9.2289 -3.8389,13.7069 2.8243,37.4327 9.6875,76.3165 27.8262,109.6675 9.2548,17.0164 22.712,30.1629 36.0164,43.9445 10.7397,11.1249 26.6982,30.7902 12.9271,45.1037 -11.5272,11.9811 -26.4973,19.1628 -37.6198,31.7819 -5.5805,6.3314 -8.3456,15.1827 -9.8173,23.4355 -1.3375,10.3214 -2.9915,19.4673 -5.873,29.6766 -4.9019,17.3671 -14.731,31.9495 -29.367,42.5732 -16.8335,12.2189 -38.3289,8.2696 -57.2672,13.3419 -17.067,4.5712 -25.1144,19.2934 -26.5828,36.1883 -0.0944,3.4916 2.5945,6.1442 2.9152,9.5344 0.358,3.785 -3.0251,6.7442 -2.7018,10.7026 0.6867,8.4073 13.4506,19.5358 17.939,26.5764 10.131,15.8917 20.5887,31.5988 29.7184,48.1247 4.3252,7.8292 12.2709,18.5665 12.3668,27.7545 0.0437,4.1911 -3.6077,9.7866 -2.2175,13.7275 4.4053,4.6155 9.2506,8.7906 13.54,13.52 13.4578,12.5891 16.9866,27.7994 20.95,44.79 1.9539,8.8875 -1.942,17.5073 -4.21,25.91 -1.7528,7.4019 -12.5846,18.5327 -10.9967,25.7271 0.7381,3.3441 3.9542,6.4807 5.3616,9.6078 2.2378,4.9718 3.0493,10.1589 4.1591,15.4433 2.3289,11.0888 1.0344,23.2607 1.0046,34.5368 -0.03,11.3924 -0.8174,23.0669 0.0494,34.4317 0.9666,12.6718 5.6223,24.9487 8.9056,37.1083 2.6774,9.9155 6.6128,19.5063 8.7982,29.5864 1.5283,7.0494 2.4999,13.531 2.5259,20.7711 0.0184,5.144 -3.059,14.3322 -1.1486,19.0011 3.1617,7.7274 11.5419,12.4476 3.6152,21.9016 -8.0056,9.548 -21.9055,3.3346 -32.6644,2.7347 2.1483,30.364 17.9234,63.2573 30.061,90.8213 15.0434,34.1631 35.3229,65.2614 56.8466,95.6362 21.1644,29.8679 38.1962,62.2018 48.4017,97.3574 4.7702,16.4323 9.3467,33.3837 12.8265,50.1354 3.1481,15.1544 3.8527,38.1246 13.2142,50.9597 3.7634,-14.498 20.296,-30.4047 30.7419,-40.5371 12.5038,-12.1288 28.683,-23.4415 45.2381,-29.193 31.9774,-14.7272 64.4576,-22.842 93.36,-43.6399 28.9532,-25.8433 36.5889,-62.2898 42.5178,-99.3636 2.7355,-17.1055 3.4641,-34.3699 6.0466,-51.4635 2.5782,-17.0643 6.7972,-35.2682 5.8256,-52.6129 -12.6755,1.0355 -38.6406,10.3445 -39.2741,-11.021 -0.5222,-17.6068 7.0106,-36.0502 10.3797,-53.1371 7.1034,-36.0267 19.8318,-71.1833 18.9745,-108.4419 -16.5887,0.1519 -31.8984,21.3348 -46.386,27.5273 -9.3504,3.9967 -21.4789,2.0785 -31.3965,2.0769 -12.6005,-0 -25.429,-0.6456 -38.0057,0.1523 -39.7545,2.5226 -79.6232,6.3822 -119.4778,7.4055 -9.7261,0.2496 -40.0402,3.4813 -38.624,-14.1321 -0.0214,-20.1354 1.1538,-39.9564 1.9942,-60.0222 1.6285,-38.885 7.4388,-77.5231 9.1997,-116.42 1.8074,-39.9222 8.1004,-80.0574 20.8318,-118.0258 3.1578,-9.4177 6.1879,-18.8966 9.5115,-28.2563 2.6198,-7.3776 7.5569,-16.3964 8.1628,-24.2158 -3.5955,-6.35 -11.8077,-9.8441 -4.3667,-17.6268 7.5626,-7.91 12.86,-15.1827 16.6942,-25.6619 13.0234,-35.5939 3.3758,-78.627 30.1425,-109.0012 28.869,-23.0424 62.7888,-26.2987 97.2314,-35.9006 31.026,-8.6495 61.7908,-15.7442 93.9423,-18.5271 16.9502,-1.4672 34.3894,-0.0346 51.3813,-0.1822 8.7172,-0.0757 16.8905,0.9697 25.5074,1.665 8.77,0.7076 20.5797,4.493 29.0975,2.325 -2.7942,-2.3526 -6.6055,-2.3368 -9.8733,-3.5311 -3.9861,-1.4568 -7.0873,-5.4317 -9.9404,-8.3652 -5.8831,-6.0487 -12.8915,-9.2281 -18.6699,-14.9661 -13.6573,-13.562 -24.1595,-30.1598 -38.1082,-43.7461 -27.3969,-26.6852 -55.4901,-55.3601 -55.2272,-95.8406 0.1122,-17.2618 4.1824,-33.1656 10.9828,-49.0784 3.3224,-7.7744 6.2802,-16.0567 8.8622,-24.1099 3.2216,-10.048 -0.3213,-16.6856 -7.0959,-24.5026 -10.991,-12.939 -15.5029,-29.3557 -35.9138,-28.3987 -17.8636,0.8375 -28.9789,29.1983 -35.5968,43.0494 -16.9771,35.5324 -21.9161,81.1598 -57.8298,104.4433 -11.4135,7.3995 -36.5333,20.4835 -50.6898,17.7929 -25.4086,-4.8292 -9.4431,-31.9586 -5.8326,-45.6182 11.0317,-41.7357 2.5125,-82.9882 -6.6896,-124.3496 -8.4184,-37.8392 -6.5325,-74.3273 12.8173,-108.6228 C 884.1168,43.2569 915.4435,18.2291 955.66,4.95 m 14.58,37.12 c -45.2172,11.7045 -83.8959,49.1232 -85.9137,97.6032 -1.1723,28.1656 6.81,55.6986 10.9665,83.3735 2.1039,14.0082 3.2928,28.1046 3.7961,42.2555 0.2352,6.6135 -0.4653,13.2057 -0.9411,19.7913 -0.313,4.3324 -2.9237,12.8613 -0.3777,16.7764 22.4713,-18.6563 31.0782,-51.4002 41.789,-77.3603 10.8051,-26.1887 24.3835,-48.7697 47.0067,-66.3777 24.1675,-18.8102 49.0605,-28.1785 76.4343,-10.1419 26.7579,17.6308 34.3032,50.6858 28.8007,80.8696 -5.4597,29.9497 -23.6272,56.2747 -24.4711,87.3705 -0.8813,32.4766 21.3042,53.0567 42.3105,74.5147 10.2172,10.4369 19.5876,21.5024 28.9899,32.6751 4.3516,1.5617 9.4299,1.7606 13.16,4.7859 4.6396,3.763 5.5693,10.2399 11.7264,12.5743 10.8208,4.1026 27.6373,-8.7598 37.0773,-13.2152 14.8136,-6.9917 32.6479,-0.8833 48.4263,-2.625 -1.0663,-7.1884 -7.1656,-13.9714 -10.9673,-19.9177 -5.3917,-8.4333 -10.4269,-17.0869 -15.4252,-25.7569 -10.1628,-17.6284 -16.2,-38.5175 -12.8182,-58.891 6.5016,-39.171 44.5131,-62.6542 78.7087,-38.6604 9.6105,6.7432 27.0955,35.5796 39.902,31.7959 5.9718,-3.3675 6.6769,-12.8163 8.1061,-18.6528 2.4362,-9.9489 5.3779,-19.9669 11.2706,-28.479 11.0863,-16.0146 30.3779,-18.7229 45.8945,-28.6982 15.2053,-9.7752 23.9335,-27.7002 43.4854,-30.7059 10.2513,-1.576 40.0491,-7.7551 41.4915,-21.1618 0.9353,-8.6927 -9.3298,-15.181 -15.8777,-18.5152 -9.1168,-4.6423 -16.7103,-10.8774 -25.4761,-16.02 -10.2032,-5.9858 -41.647,-10.4457 -37.6595,-26.4678 1.3298,-5.3434 6.0144,-6.6578 -0.478,-9.8297 -3.9355,-1.9227 -8.2161,-2.9286 -12.3839,-4.1882 -11.324,-3.4225 -22.6031,-6.1531 -34.3529,-7.7313 -39.8624,-8.4165 -86.4622,4.0776 -123.7131,17.7505 -38.0905,13.9811 -72.5897,34.7157 -104.8068,59.0695 -6.5115,5.2247 -12.7126,19.4717 -23.0583,15.0406 -12.8456,-5.5018 -6.0345,-18.0844 -0.6617,-25.7206 2.7714,-3.9082 0.5437,-8.7982 1.42,-13.1 1.0587,-5.3335 2.8,-10.5933 2.77,-16.09 0.2057,-14.4107 0.3877,-27.8043 -3.9093,-41.7867 C 1085.2764,48.7486 1016.1648,26.8442 970.24,42.07 M 463.82,167.69 c -8.0627,3.7799 -12.4086,-4.7473 -19.4875,-5.8087 -7.9009,-1.1847 -15.9507,6.2278 -21.3573,11.0142 -4.6205,4.0905 -12.0422,14.1182 -19.0252,13.7345 -10.2748,1.1646 -13.6115,-8.487 -17.18,-15.75 -9.8236,11.6822 -13.6046,31.9422 -20.14,45.82 -7.4735,15.1725 -21.8983,14.2674 -30.2,-0.68 6.0788,21.2756 -21.8138,32.3352 -35.3242,43.685 -9.1575,7.693 -17.3976,16.4933 -24.5338,26.1024 -5.6379,7.5915 -15.5286,19.7592 -15.142,29.8127 12.6875,-2.3711 41.6743,-18.022 45.0482,4.7735 1.2709,8.5869 -3.1798,18.5327 -4.3982,26.9965 -0.7338,4.6526 -2.2591,9.1326 -2.9208,13.7995 -0.9859,6.9535 4.0617,8.2358 8.5559,12.517 27.7466,26.4318 21.7515,73.0662 44.5948,103.0134 2.6798,3.951 33.3975,32.8198 36.12,25.49 -2.2423,-8.3771 -6.0601,-17.0925 1.9158,-23.7115 10.3227,-8.5667 18.0166,-1.3795 27.7142,2.9516 4.4,-0.7219 12.8408,-10.4493 16.65,-13.42 -1.7505,-8.6728 -5.7106,-16.6455 -7.2126,-25.4851 -3.3026,-19.4355 0.8936,-40.4066 16.278,-53.7808 14.5465,-12.6458 35.3382,-14.7332 53.7786,-12.1219 9.8859,1.4 19.3127,4.9735 28.2725,9.2873 11.8405,5.7007 9.1913,-12.4196 10.4594,-20.8705 2.5802,-17.197 6.5068,-36.4124 19.7794,-48.825 6.1896,-5.7886 13.0674,-6.6323 16.6375,-14.8252 2.3181,-5.3198 1.2562,-7.1248 -0.4458,-12.3725 -1.7631,-5.4358 0.1737,-9.511 2.2633,-14.4163 3.5657,-6.7273 -0.3809,-15.3217 6.35,-20.7965 5.6494,-4.5951 14.3794,-4.5745 20.6969,-8.2698 7.2946,-4.2668 13.5319,-10.4325 21.6731,-13.1737 4.3787,-1.8525 16.1912,-13.4327 14.57,-19.08 -6.9091,-13.8184 -40.0334,-8.7249 -52.8675,-10.8338 -7.8632,-1.292 -13.0353,-8.2627 -12.5378,-16.1645 0.6021,-9.5624 11.5418,-11.1589 16.7552,-17.4718 -9.2361,-4.9797 -28.9232,0.8798 -38.5688,2.6069 -10.7993,1.9337 -30.0898,9.9207 -39.9839,3.6132 -4.4312,-2.8249 -7.4373,-7.0643 -7.3428,-12.4479 0.0874,-4.9801 2.035,-14.0499 -6.2644,-12.0722 -12.4895,2.5519 -22.1079,11.5037 -33.1802,17.16 m 980.56,69.81 c -11.3988,3.6212 -16.9081,18.6915 -24.9456,26.5585 -10.5991,10.3743 -25.3284,15.1655 -35.7891,26.2442 -16.9484,17.9497 -18.3683,65.8889 -49.2876,65.9635 -14.3757,0.0347 -26.7668,-11.1681 -36.4963,-20.4403 -4.4705,-4.2603 -9.4655,-10.1495 -15.0215,-13.0459 -5.4694,-1.7238 -15.1086,4.2484 -19.5931,6.8324 -10.9884,6.3317 -19.33,17.3547 -14.5168,30.4776 4.6576,13.4333 15.2915,28.5345 23.6306,40.07 7.6189,10.5391 20.729,21.4688 21.3466,35.3914 0.7451,16.7965 -15.1556,20.5477 -28.566,23.9071 -14.429,3.6146 -29.3422,4.8604 -44.0591,6.7655 -7.7261,1.0002 -14.1299,0.8875 -17.4879,8.5844 -2.5239,5.7848 -5.418,11.101 -8.4904,16.5941 -3.5405,6.3301 -1.4037,6.6826 4.4207,8.9212 5.528,2.1247 10.9297,5.1917 13.0436,11.1373 2.3966,6.7408 -2.9879,13.2025 3.6335,17.2467 6.4987,3.9691 13.5027,6.6566 19.3372,11.681 10.28,8.8528 22.9882,15.8931 34.0747,23.8176 11.8438,8.4658 26.7462,22.394 41.4565,24.7037 2.6355,-16.075 4.2902,-32.1632 10.0134,-47.5916 2.2139,-5.9678 10.6099,-16.0206 2.8922,-18.941 -7.9141,-2.9948 -16.0596,-4.3081 -18.65,-13.6099 -4.6719,-16.7758 8.8113,-26.1097 23.8002,-22.1125 13.817,3.6848 30.0055,6.384 41.6543,13.545 28.9731,17.5189 61.4634,19.6242 83.95,-8.49 1.866,-2.2463 3.526,-4.6357 4.98,-7.1682 2.9724,-6.0259 -2.0785,-5.7718 -6.61,-7.6431 -8.6442,-3.5697 -16.4417,-7.8653 -23.9001,-13.5593 -11.7448,-8.9662 -25.9185,-21.7567 -32.1663,-35.4985 -7.1748,-15.7808 13.6064,-13.2421 21.2522,-7.9087 14.3434,10.0054 26.2308,22.9684 42.9354,29.2089 9.5342,3.5617 12.3171,3.5554 15.1161,-6.0852 2.3948,-8.2487 4.7273,-16.5187 7.4181,-24.6776 5.7513,-17.4384 12.5364,-32.4403 25.1729,-45.8524 4.8385,-5.1354 10.9835,-9.7928 15.071,-15.5683 3.2375,-4.5746 -7.3901,-11.0047 -10.4271,-14.3199 -11.3634,-12.405 -16.7194,-29.4983 -19.8204,-45.6667 -3.3518,-17.4762 -5.3407,-35.1884 -9.6891,-52.4623 -2.2454,-8.9193 -4.0575,-12.6607 -13.6686,-12.2562 -9.5838,0.4034 -16.8936,2.4014 -26.0142,5.2475 m -799.37,27.83 c -4.7424,-0.8318 -12.948,2.7769 -16.0471,6.408 -5.6072,6.5699 -7.3267,8.8469 -15.793,11.902 1.4023,7.0467 -2.1885,15.6813 0.6984,21.805 3.3647,7.1368 5.0586,13.4634 0.0352,20.4525 -3.2885,4.5752 -13.0588,11.6988 -18.2506,13.8181 -8.3669,3.4153 -16.2243,-1.8585 -21.5548,7.8289 -9.491,17.2484 -9.3774,40.2946 -11.4182,59.3856 -0.9724,12.7349 0.4415,31.8605 -17.8496,30.6698 -8.0067,-0.5212 -12.3754,-6.8888 -17.5042,-12.0867 -6.1305,-6.2131 -13.7169,-10.752 -21.4762,-14.623 -7.6948,-3.2563 -20.7434,-8.5094 -27.5859,-1.791 -5.9811,5.8725 -11.3125,13.4456 -14.3597,21.2635 -3.3101,8.4923 -3.5188,18.236 -0.3119,26.7938 2.6033,6.9471 11.4004,14.1785 11.1875,21.7838 1.7487,16.4378 -17.5132,21.0674 -28.2,28.64 -7.5734,4.2514 0.1461,12.6007 2.1181,17.4086 3.2764,7.9882 3.8902,17.0853 1.4119,25.3814 -2.4176,9.1509 -8.523,16.5854 -13.07,24.7 6.6608,5.0821 14.5873,8.2849 21.6494,12.7438 16.1309,10.1851 32.524,19.8642 50.9157,25.4815 15.5838,4.7597 31.7808,6.9947 47.2727,12.1876 3.8452,1.2889 7.6313,4.3088 9.816,-0.0541 1.8317,-3.658 2.454,-7.9852 3.8235,-11.8299 3.0325,-8.5128 7.2574,-16.4628 13.8157,-22.7848 13.8431,-13.3442 32.5107,-13.0715 50.2587,-16.5388 11.8535,-2.3158 40.3929,-9.3682 41.1483,-25.4553 -18.9448,-3.8271 -35.9423,-8.5181 -50.8831,-21.5501 -6.0629,-5.2882 -16.3122,-13.8692 -15.293,-23.0077 1.323,-11.8625 13.9014,-4.8139 19.5588,-0.7855 8.3367,5.9361 53.2236,30.5388 57.6919,12.9001 4.7654,-18.8116 0.5668,-39.9792 22.7858,-48.1431 6.7603,-2.4839 23.0587,-3.8858 25.8508,-11.7525 2.7635,-7.786 -7.4551,-16.0393 -12.1013,-20.8313 -15.8737,-15.8536 -30.6906,-33.3212 -40.16,-53.84 -10.4018,-21.398 -16.3218,-45.5549 -19.1172,-69.1237 -1.3599,-11.4659 -2.5486,-22.9494 -3.2805,-34.4724 -0.2142,-3.3732 0.8163,-9.5252 -1.1356,-12.5236 -2.9616,-4.5497 -10.4209,0.2362 -14.6465,-0.3605 m 358.2,255.02 c -0.67,0.5567 -1.34,1.1133 -2.01,1.67 6.5319,8.1183 16.1696,13.4696 22.9499,21.6373 7.1097,8.5646 13.4209,17.7768 18.1915,27.8547 10.2454,21.6428 13.4568,45.0272 14.0686,68.7379 5.6547,-1.69 10.1152,-20.3403 12.5732,-25.4271 4.8062,-9.946 10.2521,-19.5989 16.5403,-28.6874 6.2813,-9.0784 13.4119,-17.5857 21.4664,-25.1456 6.6456,-8.0021 -3.1868,-15.3609 1.1366,-25.1448 3.5474,-8.0277 12.0702,-8.6362 13.0679,-18.3585 0.6886,-6.7103 -10.8546,-4.6965 -16.0208,-4.8679 -7.1851,-0.2383 -14.394,-0.3503 -21.583,-0.3541 -26.9914,-0.014 -53.7862,3.8311 -80.3806,8.0855 m -89.48,22.43 c -15.7813,6.8467 -31.7284,17.7487 -38.4327,34.1796 -8.4061,20.6017 -13.2678,42.2985 -20.6226,63.2478 -3.5345,10.0679 -0.8164,7.9152 5.0153,15.0726 6.1943,7.8267 3.013,17.268 0.5532,25.842 -5.9738,20.8226 -11.8536,41.6906 -17.778,62.535 -12.0314,42.3317 -22.6411,85.0349 -25.8918,129.0633 -3.2311,43.7629 -7.308,87.485 -10.2047,131.2853 -0.3618,5.4691 -2.6413,10.6973 4.0773,11.4584 4.1666,0.472 8.3519,0.039 12.524,-0.014 10.0966,-0.4268 20.1964,-0.7778 30.2919,-1.2311 22.2617,-0.9995 44.5235,-2.7078 66.7532,-4.1764 10.0743,-0.6656 20.2198,-1.5531 30.3151,-1.6193 5.1187,-0.034 10.2375,0.064 15.3559,-0.031 6.6619,-0.1237 10.2625,2.0699 10.7662,-5.6959 1.4902,-22.9752 1.9576,-45.896 4.2579,-68.8496 4.0975,-40.8862 6.5608,-83.8926 15.2399,-124.0765 5.8722,-42.5422 18.4803,-83.951 24.7873,-126.4741 4.889,-32.9629 9.8667,-78.127 -9.5374,-107.46 -20.163,-30.4803 -63.2609,-45.1335 -97.47,-33.056 m 252.4599,6.39 c -4.7711,3.3239 -10.0006,6.0807 -14.1399,10.24 6.6171,4.0696 19.0514,2.4888 26.6383,3.913 11.2374,2.1093 22.1685,5.8494 32.8824,9.7722 17.0173,6.231 32.6855,17.4839 50.4092,21.9149 -6.2303,-6.4785 -13.5243,-11.8 -20.946,-16.8177 -8.7385,-5.9079 -15.6929,-13.4977 -24.8326,-18.9287 -7.793,-4.6307 -15.989,-8.6417 -24.5981,-11.5162 -10.8652,-3.6279 -15.6709,-3.8311 -25.4133,1.4225 M 281.52,576.26 c 6.4337,12.1302 16.9356,21.2627 22.8,34.12 6.1618,13.5093 7.9942,27.4005 12.05,41.45 4.846,0.7956 19.7256,-23.4039 23.3373,-27.3225 5.5909,-6.066 11.664,-11.5986 18.0427,-16.8237 5.4886,-4.496 13.7197,-8.6142 17.43,-14.8338 -11.2587,-7.183 -31.1135,-8.5475 -44.0503,-11.2373 -16.2766,-3.3842 -32.9137,-6.3282 -49.6097,-5.3527 m -83.85,6.63 c -36.7609,11.645 -59.8542,51.0266 -74.3329,84.5297 -17.4303,40.3332 -26.5198,84.4634 -36.9208,126.9923 -10.7969,44.1477 -20.4183,88.5437 -30.7161,132.8009 -4.7394,20.3685 -10.6425,40.4355 -15.3144,60.8179 -4.5467,19.8358 -10.7821,44.6558 -3.7825,64.596 12.7431,36.3018 72.2413,33.4293 103.0463,35.5702 20.3263,1.4126 40.9869,2.6156 61.3645,1.8474 9.2585,-0.3491 18.5114,-0.4441 27.7677,-0.72 8.2452,-0.2457 5.2059,-23.0612 5.5643,-29.0574 2.5398,-42.492 6.5987,-86.8738 18.791,-127.8529 2.4031,-8.0768 9.1969,-10.663 9.0902,-19.6179 -0.1253,-10.5121 0.3937,-21.071 1.0252,-31.5611 1.373,-22.8071 5.458,-45.4064 6.7974,-68.1552 4.2583,-24.5921 7.6991,-49.5473 14.7827,-73.5444 3.2852,-11.1294 6.7424,-19.0068 3.1676,-30.0677 -1.6496,-5.1041 0.6872,-12.0709 1.2463,-17.2379 0.701,-6.4778 0.5115,-13.0173 -0.0624,-19.4987 -3.922,-44.2925 -39.8516,-101.669 -91.5141,-89.8412 m 925.35,3.17 c -25.8574,31.2635 -42.676,68.9963 -50.3912,108.8 -8.5404,44.0611 -4.8918,87.5303 -2.2572,131.9277 2.4375,41.0769 3.0325,82.0717 8.0925,122.9711 4.3323,35.0176 8.3551,88.5351 49.3081,100.1686 37.5055,10.6543 82.7566,-12.6339 113.9149,-31.7315 34.511,-21.1525 72.4635,-44.3875 98.2712,-76.1375 26.8756,-33.0636 32.0961,-71.2009 10.0634,-108.309 -4.1888,-7.055 -8.8617,-14.5029 -14.3209,-20.6614 -5.2181,-5.8864 -15.1621,8.7589 -19.9508,12.6719 -16.0513,13.6823 -33.2032,26.9777 -48.36,41.62 -17.6926,14.6036 -35.7543,34.1297 -55.7418,45.356 -17.7892,9.9915 -31.7437,-16.7449 -16.8857,-28.8339 8.5186,-6.931 16.8618,-14.0552 25.2618,-21.1354 3.9335,-3.3156 7.8763,-6.62 11.8257,-9.9167 3.9137,-2.7122 2.6058,-10.9953 3.1835,-14.9747 3.374,-23.2489 13.2339,-45.3502 19.1802,-67.9891 5.1938,-19.7744 9.9683,-43.4827 0.9417,-62.8578 -2.9583,-6.3497 -14.5326,-15.5676 -8.1753,-23.0384 5.9543,-7.8764 16.8475,1.5354 21.27,5.76 16.748,15.8607 17.5201,42.5779 15.3942,63.9089 -2.2156,22.2287 -11.6541,43.5119 -13.4641,65.4711 6.4354,-1.9821 11.9829,-9.196 16.9464,-13.4766 8.0444,-6.9377 15.6853,-14.3223 23.5319,-21.4788 5.0337,-4.5909 9.6747,-10.2872 15.3417,-14.1046 8.0721,-5.3969 12.7865,1.9774 14.7483,-10.0336 2.882,-17.6437 -0.8945,-35.4297 0.092,-53.0964 0.6068,-11.4703 0.4204,-13.6778 -8.83,-20.95 -6.8557,-5.1538 -13.1682,-11.2385 -19.7958,-16.6993 -13.0415,-10.7455 -26.2341,-21.2866 -39.918,-31.2194 -14.9972,-10.8862 -31.7429,-18.6545 -46.8051,-29.1187 -13.2864,-9.2305 -30.2833,-15.2776 -45.8917,-19.2209 -9.4622,-2.3904 -18.8378,-4.1431 -28.5498,-5.0546 -5.9974,-0.5628 -23.7065,-4.4805 -28.0298,1.383 m -720.1,22.85 c -29.0003,29.4045 -57.9444,58.8225 -74.9445,97.1478 -17.152,38.6678 -21.6114,82.2462 -27.3912,123.769 -6.1065,43.8703 -9.0958,87.454 -6.8943,131.7133 2.4998,34.066 10.4793,84.0845 49.4205,94.7734 18.4504,5.0643 37.196,-0.2662 54.9214,-5.6586 20.9706,-6.3796 41.3232,-14.8477 61.173,-24.1074 18.8123,-8.7759 37.1798,-18.6528 55.0707,-29.1722 8.6731,-5.0996 17.4417,-10.0571 25.8026,-15.6649 6.5067,-4.3642 2.6427,-4.6211 1.4611,-11.1276 -0.7769,-4.2782 3.0884,-9.8995 0.6108,-13.7726 -9.1717,-16.5864 -16.8085,-35.1355 -28.4869,-50.1754 -12.3746,-15.9365 -32.8345,-19.2076 -51.7863,-18.2052 -19.6025,1.0368 -38.701,6.1207 -57.7397,10.5562 -7.5704,1.7637 -18.611,5.2262 -25.3383,-0.619 -6.1615,-5.3535 -10.0806,-16.0955 -4.6384,-23.2852 6.3624,-8.4056 25.4384,-7.2629 34.9471,-9.5483 9.2448,-2.222 35.3386,-2.1345 41.0324,-10.3831 17.4307,-22.3721 22.2895,-49.5351 25.6845,-76.9316 1.251,-10.0955 -0.5275,-26.635 12.2962,-29.7648 13.9022,-3.3929 15.1507,15.3492 15.2793,24.5563 0.5883,15.0363 -1.8878,29.5323 -5.7595,44.0047 -3.4934,13.0584 -13.4348,25.6646 -15.6305,38.5753 8.3752,1.8389 16.9637,2.7444 25.16,5.36 4.8329,1.9034 9.3039,-6.1219 11.4194,-9.0668 10.2482,-14.266 17.7412,-30.2262 26.8288,-45.2079 4.1299,-6.8084 8.6044,-13.4286 13.7518,-19.5154 4.3778,-5.4628 9.7456,-7.1053 4.2004,-13.8792 -10.8846,-13.2964 -19.2388,-28.2866 -27.8819,-43.0582 -7.7466,-13.2395 -15.4048,-26.5687 -24.3184,-39.0718 C 500.7403,676.521 487.8531,665.039 475.3445,652.3067 463.2668,640.0131 422.0743,590.9578 402.92,608.91 m 925.7601,25.98 c 4.6515,6.5037 13.3827,10.9688 19.467,16.0728 7.1182,5.9713 13.2422,14.8939 23.1129,14.7972 -9.0763,-13.55 -26.6156,-26.9897 -42.5799,-30.87 M 497.92,637.62 c 25.1368,22.0872 48.1245,46.8617 66.59,74.84 8.2593,12.3478 15.6986,25.4895 21.2437,39.3033 2.1799,5.4307 2.3594,14.4174 9.5156,13.8723 8.7734,-0.6683 17.0479,0.2855 25.7807,0.1844 -3.6003,-14.3803 -15.2377,-29.5505 -22.5699,-42.3005 -8.7136,-15.1523 -17.4113,-36.1337 -31.0653,-47.284 -4.7455,-3.8753 -6.4471,-11.1818 -10.2935,-16.0807 -4.7111,-6 -8.5881,-10.3664 -16.145,-12.5586 -7.3098,-2.1205 -14.7241,-4.0097 -22.085,-5.9537 -3.9801,-1.0511 -17.2476,-7.5071 -20.9713,-4.0225 m 936.71,48.23 c -2.5959,11.2202 -5.959,36.3027 -21.42,36.6525 -7.4441,0.1684 -15.8701,-4.9778 -22.35,-8.1625 -7.6969,6.4184 -11.9358,6.813 -21.1799,3.1 -4.3815,11.1447 -0.2997,26.5915 -1.5321,38.4833 -0.6033,5.8211 -1.7256,11.3823 -4.3492,16.6542 -1.3824,2.7781 -8.3604,9.9721 -7.3937,13.0712 3.2585,10.4471 15.4578,21.5679 21.2303,31.124 7.087,11.7319 10.8903,25.696 18.2947,36.9973 16.7405,-22.1467 28.6034,-53.3271 38.0337,-79.2798 5.9993,-16.5103 11.1439,-33.7923 11.8042,-51.4564 0.4277,-11.442 -0.3703,-29.8805 -11.138,-37.1838 m -402.72,110.92 c -6.1595,34.2862 -10.8528,69.0016 -14.6746,103.6241 -2.0243,18.3387 -3.4128,36.7409 -4.5811,55.1518 -1.0795,17.0105 -3.3766,35.5939 -1.0244,52.5441 7.8829,-2.7445 15.1227,-10.065 21.989,-14.7169 11.5638,-7.8347 13.5677,-9.2377 11.1586,-23.8569 -0.7871,-4.7758 -1.5773,-9.594 -1.3776,-14.4562 -0.3572,-3.7743 3.7562,-5.3872 4.9344,-8.5002 2.9111,-7.6917 -1.8345,-23.6359 -2.6456,-31.8162 -4.4911,-45.2964 -5.6344,-90.7592 -9.4388,-136.0536 -2.7997,5.6295 -3.3391,11.9758 -4.3399,18.08 m -454.53,8.62 c -12.4899,12.3114 -22.2016,27.0016 -32.3983,41.1719 -4.6424,6.4516 -9.4078,12.8261 -14.6017,18.8481 -5.7866,6.9631 0.5032,9.4128 5.3486,15.2548 10.5872,12.7642 17.4833,27.9783 24.9537,42.6442 2.0428,4.0105 4.136,7.9969 6.3704,11.9047 3.2151,5.6228 4.4634,3.2929 9.0873,-0.0273 7.7277,-5.549 15.2614,-11.3701 22.6624,-17.3477 23.3371,-18.8493 63.5699,-50.3365 56.0817,-85.0349 C 651.5825,817.5051 638.8085,806.6499 626,798.95 c -16.8702,-10.8279 -34.9297,-7.7638 -48.62,6.44 m 76.98,105.9 c -11.0466,13.1835 -25.1362,24.6361 -38.6894,35.1238 -6.1176,4.7339 -12.2413,9.5697 -18.6717,13.8699 -9.126,6.1028 -6.6385,5.7947 -4.9199,14.3629 3.0263,15.0874 -18.2275,23.9498 -28.2516,30.1285 -15.8624,9.7771 -32.0754,19.0903 -48.5246,27.8408 -33.424,17.7806 -68.2947,34.1808 -104.9535,44.125 -17.9299,4.8638 -36.4027,8.1067 -55.0195,7.8879 -19.4243,-0.2283 -33.4913,-6.858 -51.4198,-12.5687 -1.7754,9.2546 2.3645,22.1902 4.9088,31.0237 3.3116,11.4974 6.4052,20.0393 19.675,16.4263 24.8578,-6.7682 49.6131,-12.3115 75.1508,-15.9474 52.8505,-7.5244 106.3118,-11.9357 159.4341,-17.1392 25.3494,-2.483 51.0627,-4.8795 76.5227,-3.031 11.3129,0.8214 22.4921,2.1924 33.7734,3.1934 8.336,0.7396 7.031,-7.2672 6.8815,-14.0166 -0.1409,-6.3596 -1.2845,-12.6532 -2.7363,-18.8292 -6.2786,-24.6815 -17.1499,-47.9271 -17.0291,-73.7448 0.0424,-9.0563 6.656,-68.4847 -6.1309,-68.7053 m 725.56,37.66 c -16.1265,23.7115 -38.8923,42.5592 -61.701,59.4983 -25.5825,18.9991 -51.5903,38.2692 -80.119,52.6817 -53.9092,28.2084 -123.5258,43.0621 -167.26,-9.1 -6.2207,13.2896 -6.4443,31.6943 -9.5905,46.0857 -3.9221,17.9415 -10.1935,37.0618 -10.7795,55.4742 20.4402,-0.7583 42.1523,-8.7395 62.2976,-12.4725 23.5784,-4.3691 47.1191,-8.4409 70.8539,-11.9623 47.3217,-7.0206 95.4713,-12.4921 143.2729,-14.7427 21.5839,-1.0162 43.1702,-2.4697 64.7797,-2.8696 3.0763,-0.057 27.4172,0.2808 26.5459,-3.5529 -1.0293,-11.957 -3.3235,-23.6946 -5.175,-35.5361 -3.7411,-23.9264 -8.5905,-47.6438 -12.688,-71.5059 -2.0428,-11.8967 -4.01,-23.8069 -5.8287,-35.7402 -1.3583,-8.9127 -0.3679,-22.9126 -4.5682,-30.9178 -4.1986,4.2786 -6.4525,9.9333 -10.0401,14.6601 M 601.68,1112.2 c -43.7809,1.8245 -87.0262,7.6724 -130.6106,12.0927 -21.1237,2.1423 -42.2094,4.1539 -63.1937,7.4502 -17.8199,2.7993 -47.1651,1.4796 -56.6087,19.1511 -8.8302,16.5237 -9.3163,37.7405 -9.9248,56.0538 -0.7517,22.6207 -0.075,45.3116 -1.4928,67.9103 -2.5687,40.9436 -17.0481,83.8291 -29.2618,122.85 -25.2187,80.5695 -74.0798,150.7863 -132.4186,211.0599 -7.2789,7.5203 -14.6386,14.9617 -22.009,22.3921 -6.9522,7.1248 -12.1876,9.153 -1.8389,15.4689 17.8543,10.8966 37.4863,19.5374 56.7786,27.5167 18.3477,7.5886 37.146,14.4442 56.3938,19.3889 20.5385,5.2762 39.8515,9.2148 46.0837,-16.1411 4.8629,-19.785 6.2025,-38.3271 15.1596,-57.0481 8.9243,-18.6525 19.0428,-37.377 31.7466,-53.7677 24.6056,-31.7467 52.5121,-60.6343 78.3225,-91.3662 25.0289,-29.8014 45.735,-63.7332 57.4941,-100.9915 16.3606,-38.761 37.1706,-75.3137 53.6243,-113.9858 3.8656,-9.0854 7.4901,-18.3473 10.3539,-27.8031 2.2661,-7.4822 2.5886,-19.5361 7.3203,-25.8102 3.6069,-4.7827 11.3704,-4.4908 15.7092,-0.9686 7.196,5.8418 3.0615,19.9973 1.4178,27.5603 -8.9838,41.3372 -31.3417,78.0171 -45.7737,117.4385 -3.709,10.1312 -7.3414,20.2917 -10.7468,30.5294 -1.7017,5.1161 -3.3466,10.2511 -4.9151,15.4095 3.449,2.2568 6.7563,4.731 9.8859,7.4138 16.558,14.194 31.2136,29.7568 45.7022,46.0039 28.2096,31.6332 51.3307,68.6339 69.8374,106.6783 17.9033,36.8041 30.9666,76.1333 41.7289,115.5654 2.8245,10.3488 5.2949,20.7963 7.3125,31.3329 1.5874,8.29 1.4329,16.9048 12.1931,16.2157 19.8336,1.1964 42.5987,-10.0452 60.3107,-17.8833 18.4822,-8.1788 36.4249,-17.4717 54.8432,-25.7865 8.8615,-4.0004 17.7737,-8.2939 26.9527,-11.5203 3.3314,-1.1709 6.7684,-2.2878 9.5934,-4.5 -2.9647,-5.4771 -6.4512,-10.6434 -9.7523,-15.9172 -21.7516,-34.7501 -34.086,-75.2227 -43.8619,-114.7186 -10.269,-41.4879 -18.7815,-83.2736 -31.1458,-124.2141 -6.4463,-18.2759 -14.4639,-35.9979 -23.9468,-52.899 -9.9738,-17.7759 -22.4948,-34.2843 -32.0332,-52.231 -22.4511,-34.5745 -43.0223,-69.4912 -54.967,-109.2307 -6.0782,-20.2219 -10.3867,-40.9351 -13.8029,-61.7593 -1.1252,-4.6106 -1.71,-9.3407 -1.88,-14.08 -2.9122,-2.256 -6.8256,-1.9109 -10.23,-2.4301 -12.7807,-0.1699 -25.5745,-1.4895 -38.35,-0.4299 m 739.32,34.4 c -62.5188,0.2092 -126.7468,9.724 -188.3197,19.9658 -16.3345,2.717 -32.6331,5.6489 -48.8909,8.7919 -3.6292,0.7017 -20.4546,1.3345 -20.6194,6.8224 -1.1896,8.5988 -2.2917,17.3357 -2.7981,25.9958 -1.9048,32.5718 -2.4114,66.0123 -8.1219,98.1741 -6.7365,60.9666 -42.1017,106.553 -96.5369,133.125 -28.7853,14.0513 -58.9047,25.3542 -86.1885,42.3563 -11.3817,7.0927 -23.1353,15.5016 -32.1046,25.5787 -10.3895,9.5336 -15.6752,8.7034 -24.4,-2.8301 0.6131,19.6189 9.5408,40.5459 15.43,59.0801 3.4441,9.231 6.9539,18.4425 10.8688,27.4862 2.0088,4.6406 9.4979,26.92 14.8857,27.6567 4.83,0.6604 13.9781,-12.2124 17.2977,-15.2733 7.0052,-6.4594 14.326,-12.5743 21.8994,-18.3561 16.4251,-12.5396 34.0221,-23.5067 52.3007,-33.1283 72.1901,-38 156.1608,-65.8588 214.0204,-125.6855 28.5311,-29.5013 48.4094,-65.7019 66.1594,-102.3896 17.2374,-35.6284 29.4994,-76.9122 55.2991,-107.5563 6.4625,-7.6761 29.2168,-33.7621 37.8967,-16.4996 4.3153,8.5823 -2.6747,13.0387 -8.0765,18.4243 -7.4624,7.4401 -13.3639,17.4281 -18.9814,26.2866 -21.9915,34.6792 -31.5486,76.3347 -47.6901,113.7749 -4.0941,6.5815 61.957,43.0649 69.8175,47.4385 26.8741,14.9524 54.1578,32.0206 74.5026,55.5115 46.0165,43.0358 30.5328,123.5597 33.5685,179.4063 1.6224,29.848 5.0734,58.6107 23.9615,82.9738 17.7263,22.447 32.7668,47.0269 63.1825,27.8174 25.2682,-15.9584 54.0851,-23.6599 82.4985,-32.0181 27.0028,-7.9432 60.2323,-12.7668 84.0089,-28.6593 -10.3285,-7.5936 -21.7546,-13.2605 -31.8451,-21.395 -11.4321,-9.2161 -21.3961,-19.6992 -31.1552,-30.6455 -18.5426,-20.7985 -34.9468,-43.3721 -49.7649,-66.9675 -29.3267,-46.6979 -58.6278,-94.1901 -84.0836,-143.1119 -26.9777,-51.8466 -43.1951,-108.1772 -62.7062,-163.0254 -9.8396,-27.6603 -20.6747,-55.0404 -34.0123,-81.2242 -5.9211,-11.624 -12.691,-22.7662 -19.724,-33.7441 -7.5244,-11.7454 -29.4263,-5.01 -41.5786,-4.1565 M 132.74,1671.38 c -0.9287,12.1759 -9.9964,20.8884 -17.7119,30.0203 -10.1161,11.973 -20.989,23.2957 -30.7813,35.5439 -4.1249,5.1594 -11.0671,12.0137 -12.5119,18.6461 -1.5309,7.0276 7.0116,11.5382 11.6613,15.0363 13.4433,10.1139 26.2397,21.137 39.5554,31.432 25.3263,19.5808 51.8419,38.3567 79.9943,53.6808 27.2547,14.8354 56.0909,30.9247 87.8627,31.9269 11.2114,0.3536 23.3456,-12.776 30.8484,-20.0143 10.259,-9.8973 20.7548,-24.5092 17.3279,-39.5984 -6.5289,-28.7476 -46.2314,-40.0671 -65.6196,-58.4868 -9.2587,-8.7963 -17.0608,-19.5975 -20.4322,-32.0586 -2.0213,-7.4713 1.7169,-16.0474 -5.9086,-18.8735 -7.9177,-2.9344 -16.0049,-5.3732 -24.0003,-8.0806 -16.1157,-5.4569 -31.9824,-12.0031 -47.4516,-19.0778 -13.7953,-6.3092 -28.1177,-16.4273 -42.8326,-20.0963 m 687,43.36 c -15.9819,6.8278 -31.3187,14.8021 -47.5804,21.0319 -8.2151,3.1472 -16.5318,6.0436 -24.9866,8.4817 -5.5248,1.5933 -19.6044,1.9922 -22.983,7.5265 17.9213,26.0763 7.2996,63.5592 25.7073,88.5961 21.0014,28.5646 67.304,12.9235 94.2427,4.176 32.8984,-10.6826 66.0626,-29.6025 100.6418,-33.9679 31.8533,-4.0211 65.1375,-2.4275 93.7881,-19.9142 28.8463,-16.1013 26.4822,-56.395 -7.5859,-62.7659 -33.5469,-6.2733 -70.4669,-1.1418 -104.234,2.0464 -26.1972,2.4734 -82.5298,14.2511 -92.66,-21.5906 -5.0346,1.5283 -9.5922,4.201 -14.35,6.38 m 806.71,33 c -16.2721,4.6451 -32.3118,10.1571 -47.8621,16.8447 -2.907,1.2501 -36.7238,17.9368 -32.6779,20.3752 27.9921,18.5085 17.2073,57.968 31.3734,85.5538 16.479,32.0895 50.7969,15.1842 75.7916,5.3644 33.696,-13.2384 67.6826,-25.5305 101.6799,-37.9711 31.7947,-11.6346 63.8717,-22.5977 95.3154,-35.1508 5.9059,-2.3578 39.3949,-14.7953 26.7609,-24.8613 -12.4788,-9.9423 -35.2321,-10.6844 -50.4426,-12.0525 -17.0475,-1.5333 -34.0559,2.1975 -50.9313,4.2161 -19.0579,2.2795 -38.0353,3.389 -57.2198,3.6653 -16.1083,0.2321 -32.5156,0.1165 -48.1417,-4.2933 -7.5807,-2.1394 -15.1761,-5.073 -21.8499,-9.2928 -6.8624,-4.3392 -13.2061,-13.7676 -21.7959,-12.3977 -22.7699,6.5 2.32,-0.37 0,0 z" /><path
         style="fill:#000000"
         id="path15602"
         d="M1454.4399,308.64c20.6926-5.1828,22.6503,50.2127-2.1499,48.0112   c-10.2317-0.9083-10.8771-16.7639-16.5547-23.2853C1425.6923,321.8303,1445.8937,310.9909,1454.4399,308.64   C1459.83,307.29,1447.86,310.45,1454.4399,308.64z"
         fill="#FF2D17" /><path
         style="fill:#000000"
         id="path15604"
         d="M633.52,378.79c19.7943-4.2455,30.9873,41.2782,5.3362,36.6648   c-5.924-1.0654-20.2539-12.4426-20.2719-18.8092C618.5699,391.4785,628.1443,379.5434,633.52,378.79   C637.25,377.99,627.17,379.68,633.52,378.79z"
         fill="#FF2D17" /><path
         style="fill:#000000"
         id="path15606"
         d="M994.44,661.63c33.1558-10.2925,13.9161,52.7978,11.4791,66.1913   c-5.3101,29.184-11.3464,58.5542-21.2498,86.5754c-8.4333,23.8613-20.0199,50.2827-41.3007,65.4608   c-20.2352,14.4324-51.116,14.563-69.1873-3.8506c-19.0857-19.4473-18.4821-50.2121-15.9765-75.4559   c2.7912-28.1213,8.0649-56.0189,12.7776-83.8547c1.1596-6.8491,1.779-13.8583,0.7075-20.7662   c-1.0118-3.6166,2.5048-9.0873,2.5111-13.0559c0.0283-17.6945,16.7038-16.4933,29.7487-16.4338   C934.1412,666.5779,964.7038,667.9341,994.44,661.63 M977.51,696.16c-6.7418,0.4295-13.5767,0.2393-20.2,1.79   c5.178,13.5753-2.8137,46.4697-21.6574,46.5859c-25.9506,0.1601-7.6603-34.0255-3.9826-45.6459   c-6.9428-2.9208-16.741-1.2328-24.0853-1.2541c-6.1001-0.0177-15.6933-1.9929-21.2347,1.2341   c4.6251,18.8428,4.8242,36.3515,2.8325,55.6408c-1.8755,18.1641-4.8056,36.2427-5.4427,54.5171   c-0.4996,14.3297-1.8903,37.9546,11.0474,47.7899c11.6309,8.8419,29.444-2.9912,38.1395-10.9452   c11.4896-10.5098,18.9035-24.6155,24.3402-39.0156c13.2676-35.1423,18.9604-73.2283,24.4432-110.2369   C980.31,696.4667,978.91,696.3133,977.51,696.16C970.76,696.59,978.92,696.04,977.51,696.16z"
         fill="#FF2D17" /><path
         style="fill:#000000"
         id="path15608"
         d="M235.5,705.96c13.0141-0.6811,35.5942-7.5364,42.5158,7.6135c5.6826,12.438-3.1112,34.0809-5.2837,46.938   c-5.9662,35.309-11.2831,70.7306-17.8799,105.933c-5.1813,27.6494-6.5182,67.9056-28.4758,88.5424   c-24.1943,22.739-66.6252,18.8298-97.1285,18.8343c-11.8053,0.0017-32.388,5.2199-37.1679-10.0412   c-4.6318-16.3901-7.3691-33.3545-7.6722-50.3967c-0.6607-37.157,7.8805-73.3743,17.9648-108.8596   c4.9399-17.3826,11.1218-34.3728,16.7573-51.5338c3.0465-12.382,5.5578-27.7796,19.9698-29.1911   c6.0184-0.5894,11.9604-4.0519,18.1887-4.9855c7.7778-1.1658,15.5335-2.8127,23.2641-4.2792   C198.6699,711.0972,217.1112,707.5629,235.5,705.96 M225.81,740.46c-8.4144,1.8192-3.4736,22.5773-6.57,30.71   c-4.1988,12.55-12.0661,22.5134-22.5804,30.3846c-10.9585,8.2039-26.4811,8.3351-28.0007-8.3654   c-1.3188-14.4934,2.6102-28.837,2.1411-43.2993c-6.3227-1.0438-13.5938,0.1418-19.9825,0.44   c-7.4229,0.3464-7.4223,10.326-9.1075,16.62c-4.4834,15.0985-8.8231,30.2426-12.7517,45.496   c-7.6068,29.5347-13.7149,59.8035-13.7303,90.4173c-0.0053,10.5375-1.6655,27.8767,3.882,37.3168   c2.9619,5.0402,33.5277,1.5131,39.1281,1.0674c13.821-1.0997,28.7569-2.8778,40.8619-10.1475   c10.9064-6.8396,13.8245-20.7261,16.4125-32.3772c6.7419-30.3521,11.3303-61.0367,17.5475-91.4628   c2.1003-16.012,5.539-31.8127,7.67-47.82c0.6492-5.5228,2.429-10.8549,2.79-16.42   C243.0801,734.7714,231.4414,739.6451,225.81,740.46C223.96,740.86,231.2,739.68,225.81,740.46z"
         fill="#FF2D17" /><path
         inkscape:connector-curvature="0"
         id="path16156"
         d="m 254.09478,1118.2872 c 5.84126,0 46.73007,-10.2222 46.73007,-10.2222 l -2.92063,-20.4445 -43.80944,10.2223 z"
         style="fill:#000000;fill-rule:evenodd;stroke:none;stroke-width:1px;stroke-linecap:butt;stroke-linejoin:miter;stroke-opacity:1" /></g></g></svg>